<svg xmlns="http://www.w3.org/2000/svg" viewBox="0 0 973.94 675.02"><defs><style>.cls-1{fill:#69a3d1;}.cls-2{fill:#7548d5;}</style></defs><g id="Layer_2" data-name="Layer 2"><g id="Layer_1-2" data-name="Layer 1"><path class="cls-1" d="M604.31,620.24C612.17,638,614.21,657,620.36,675H967c0-2.47-.34-5.2-.35-6.24,0-4.08-.24-8.16-.24-12.25V23.66c0-7.89,0-15.77,3-23.66H230.36q-98,0-195.91,0H.18c-3.29,45.1,40.07,76.1,73.28,89,66.5,25.84,145.11,39.15,200,86,47.66,40.68,5,87-29.24,128.36-43.52,52.6,11.84,126.66,60.38,165,46.79,37,104.79,52.21,161.33,67.33C520.42,550.32,579.15,563.55,604.31,620.24Z"/><path class="cls-2" d="M640.05,668.47c.44,2,.64,4.35,1.11,6.55H973.59c.85-3.85-.14-9-.14-12.93V0H38.09l-.56.06c.44-.06,6.29,13.26,7,14.63,2.61,5,5.43,9.83,8.5,14.53,6.12,9.37,13.15,18.27,21.58,25.64,14.25,12.46,30.94,21.86,48.07,29.73C141,93,160,99.76,179,106.3c18.74,6.45,37.59,12.63,56,20.06,13.42,5.42,26.67,11.5,38.9,19.29C319.19,174.47,332.63,225,300.45,274c-14.2,21.64-38.08,36.85-39.21,65.16-1.15,28.84,10.91,57.24,28.67,79.49,50.23,63,129.88,85,203.59,107,33.21,9.92,68.92,17.73,97.19,38.91C624.1,589.6,631.72,629.84,640.05,668.47Z"/></g></g></svg>