<svg id="Layer_1" data-name="Layer 1" xmlns="http://www.w3.org/2000/svg" viewBox="0 0 1280 605.95"><defs><style>.cls-1{fill:#f5f6f6;}.cls-2{fill:#69a3d1;}.cls-3{fill:#7548d5;}.cls-4{fill:#e5a901;isolation:isolate;opacity:0.83;}.cls-5{fill:#65c8d0;}.cls-6{fill:none;}.cls-10,.cls-15,.cls-6,.cls-7,.cls-8{stroke:#000;stroke-linejoin:round;stroke-width:3.2px;}.cls-7,.cls-9{fill:#ffbf9d;}.cls-8{fill:#c1c7ee;}.cls-10{fill:#424242;}.cls-11{fill:#29b3be;}.cls-12{fill:#c8ebee;}.cls-13{fill:#c2c2c2;}.cls-14{fill:#dedede;}.cls-15{fill:#d2d7f3;}</style></defs><rect class="cls-1" width="1280" height="605.95"/><path class="cls-2" d="M891.33,556.78c8.37,15.94,10.54,33,17.09,49.16H1280V0H248.2c-3.5,40.48,42.66,68.31,78,79.89,70.8,23.19,125,17.28,183.42,59.33,50.74,36.52,49.75,112.36,33,163.75C490.23,464.33,683.84,467.29,744,480.88,802,494,864.55,505.89,891.33,556.78Z"/><path class="cls-3" d="M916.51,556.78c7.83,15.94,9.86,33,16,49.16H1280V0H315.05C311.77,40.49,354.94,68.31,388,79.89c66.21,23.2,116.89,17.28,171.54,59.34C607,175.74,606.07,251.58,590.44,303c-49.05,161.35,120.36,159.59,179,169C824.84,481,891.46,505.89,916.51,556.78Z"/><path id="Path_1362" data-name="Path 1362" class="cls-4" d="M280.72,356.18a15.88,15.88,0,0,1,15.85-10.09,19.31,19.31,0,0,1,4.09.41,24.86,24.86,0,0,1,21.7-11.06,29.3,29.3,0,0,1,7.1.87,31.64,31.64,0,0,1,25.27-11.46c12.75,0,23.62,6.5,27.73,15.6a23.89,23.89,0,0,1,9.85-2.07c11.17,0,20.24,7.3,20.24,16.22v1.58Z"/><path id="Path_1360" data-name="Path 1360" class="cls-4" d="M199.42,227.38c-2.09-7.3-10.24-12.74-20-12.74a25.72,25.72,0,0,0-5.18.53c-4.87-8.25-15.26-14-27.34-14a37.32,37.32,0,0,0-9,1.09c-6.52-8.63-18.35-14.42-31.87-14.42-16.1,0-29.8,8.17-35,19.63a31,31,0,0,0-12.41-2.58c-14.1,0-25.54,9.17-25.54,20.48,0,.66,0,1.31,0,2Z"/><path id="Path_1362-2" data-name="Path 1362-2" class="cls-4" d="M265.67,177.47a11.34,11.34,0,0,1,11.28-7.3,14.35,14.35,0,0,1,2.92.32,17.68,17.68,0,0,1,15.45-7.88,21.19,21.19,0,0,1,5.08.6,22.35,22.35,0,0,1,18-8.14c9.07,0,16.81,4.62,19.75,11.09a17.27,17.27,0,0,1,7-1.46c7.95,0,14.42,5.18,14.42,11.55a7,7,0,0,1,0,1.12Z"/><g id="Group_2182" data-name="Group 2182"><g id="Group_2141" data-name="Group 2141"><path id="Path_2016" data-name="Path 2016" class="cls-5" d="M65.57,425.25c-2-3.05-.85-1.53-2.18-4.84,1.88-1.39,39.54-18.83,39.54-18.83a8.57,8.57,0,0,1,10.34,1.88,12.11,12.11,0,0,1,3.11,11.66S69.6,425.29,65.53,425.38Z"/><path id="Path_2017" data-name="Path 2017" class="cls-6" d="M65.57,425.25c-2-3.05-.85-1.53-2.18-4.84,1.88-1.39,39.54-18.83,39.54-18.83a8.57,8.57,0,0,1,10.34,1.88,12.11,12.11,0,0,1,3.11,11.66S69.6,425.29,65.53,425.38Z"/><g id="Group_2138" data-name="Group 2138"><path id="Path_2018" data-name="Path 2018" class="cls-7" d="M150.05,434.57a17.82,17.82,0,0,0,3.07,4.56.46.46,0,0,0,.64,0l0,0h0c1.69-1.88,3.14-4.14,4.78-6.16a28.78,28.78,0,0,0,2.37-3.77c2.81-2.05,6.18-4.42,8.35-6.42,3-2.77,5.42-7.1,3.48-6.76-.41,0,.24-1,.19-1.22-.27-1.3-1.3-.47-2.75.6.88-.66,2.18-2.41,1.3-2.52s-1.43.24-2.21,1c.91-1.32.85-2.18-.26-1.56a25,25,0,0,0-4.5,4.09c-.68.73-4.52,3.22-4.58.52a6.1,6.1,0,0,0-.81-3s-2.16-1.15-1.88,1.88c.43,3.77,1.38,8.66-5.1,13.18A57.83,57.83,0,0,0,150,434.7a21.72,21.72,0,0,1-1.88-2.39"/><path id="Path_2019" data-name="Path 2019" class="cls-8" d="M155.1,426.85c-2.26-3.94-30,37.36-46.42,43.82-31.21-5.1-40.4-7.83-50.25-11l15.71,33.26C83,494,97.53,494,112.46,496.08c12-13.66,24.48-31.57,48.29-64.79-2.57,1.79-5.05-3.39-5.65-4.44Z"/></g><g id="Path_2020" data-name="Path 2020"><path class="cls-9" d="M50.84,477a5.67,5.67,0,0,1-4.18-1.88l-.36-.42v-.52c-.18-2.11-2.48-7.08-4.51-11.47-2.55-5.48-4.94-10.66-5-13.49h0c0-.3,0-.65,2.2-5.65.41-.92,1-2.24,1.51-3.29l.58-1.15a1.61,1.61,0,0,0,.17-.28,10.09,10.09,0,0,0-1.68-4.33,72.3,72.3,0,0,0-4.23-6.31c-2.11-2.9-2.77-3.86-2.77-4.84a4.86,4.86,0,0,1,2.65-4.22c1-.72,1.3-1,1.32-1.54A4.31,4.31,0,0,1,37.94,414a4.56,4.56,0,0,1,2.92-.85h2.22c.76,0,.89-.13.89-.13s.19-.21.19-1a18,18,0,0,0-.85-5.25l-.24-.76.45-.66A13.51,13.51,0,0,1,51,400.28a29.4,29.4,0,0,1,8.44-1.11,30.1,30.1,0,0,1,6.14.54l.37.1.29.26.37.36a25.69,25.69,0,0,1,3.37.32l.87.11.38.79c1.11,2.41,1.48,6.35,1.11,11.68a9.35,9.35,0,0,0,1.26,6.59,16.26,16.26,0,0,0,3.9,4.12,2.31,2.31,0,0,1,1.18,1.77,2.57,2.57,0,0,1-1.22,2A15.65,15.65,0,0,1,75.81,429c-.84.57-1.45,1-1.43,1.27a9.4,9.4,0,0,0,.21,1.18,4.52,4.52,0,0,1,.15,1.51,2.3,2.3,0,0,1-.88,1.56,3.57,3.57,0,0,1,0,1.89,3.11,3.11,0,0,1-1.55,1.77,21.47,21.47,0,0,0-.13,3.76c0,2,0,2.86-.72,3.49a5.32,5.32,0,0,1-3.54,1,30.46,30.46,0,0,1-9.62-2.24A46,46,0,0,0,59,461.69c1.71,6.95.94,9.19-.93,10.41a10.34,10.34,0,0,1-2.18,2.66A8.05,8.05,0,0,1,50.84,477Z"/><path d="M50.84,475.36c3,0,5.78-3.56,5.86-4.09.19-1,3.13.29.79-9.24-1.68-6.78-1.73-16.4-.24-19.95,4.21,1.64,11,3.9,13.18,2.1.41-.34-.43-6.65.81-7.2s1.24-1.3.94-2.28-.51-.75.45-1.26.27-1.24.1-3,1.88-2.38,3.67-3.77,0,0-4.13-5.65a10.93,10.93,0,0,1-1.56-7.64c.13-1.89.53-7.69-1-10.89a36.62,36.62,0,0,0-3.77-.32c-.47-.47-.79-.75-.79-.75-1.54-.42-15.38-2.17-20.34,5a19,19,0,0,1,.95,5.65c0,3.57-2.68,2.69-4.9,2.69-1.49,0-2.73.39-2.75,2.79,0,3-4,2.73-4,5.65,0,1.46,9.53,11.71,8.63,16.19h0a80.75,80.75,0,0,0-4.39,9.72c.17,4.88,9.11,19.94,9.55,24.86a3.94,3.94,0,0,0,3,1.45m0,3.2a7.17,7.17,0,0,1-5.37-2.49,3.29,3.29,0,0,1-.83-1.88c-.15-1.88-2.48-6.88-4.36-10.92-3.15-6.82-5.07-11.17-5.18-14.11v-.11c0-.66,0-1,2.33-6.29.42-.94,1-2.28,1.55-3.35.2-.44.39-.79.54-1.06A13,13,0,0,0,38.06,435c-1.25-2-2.6-4-4.05-6-2.17-3-3.07-4.25-3.07-5.78a6.46,6.46,0,0,1,3.41-5.5l.62-.43a5.64,5.64,0,0,1,2-4.56,6.09,6.09,0,0,1,3.86-1.2h1.68a15.72,15.72,0,0,0-.75-4.3,3.21,3.21,0,0,1,.41-2.82,15.06,15.06,0,0,1,8.34-5.65,31,31,0,0,1,8.93-1.19,29.86,29.86,0,0,1,6.53.61,3.4,3.4,0,0,1,1.3.69,20.4,20.4,0,0,1,2.9.3,3.2,3.2,0,0,1,2.49,1.89c1.24,2.69,1.66,6.76,1.26,12.44a7.68,7.68,0,0,0,1,5.56,14.94,14.94,0,0,0,3.54,3.77,3.85,3.85,0,0,1,1.88,3,4,4,0,0,1-1.88,3.28,15.39,15.39,0,0,1-1.88,1.31l-.62.44v.36a6.6,6.6,0,0,1,.17,2,3.8,3.8,0,0,1-.76,1.88,4.43,4.43,0,0,1-1.75,4.11v4.37a4,4,0,0,1-1.28,3.1,7,7,0,0,1-4.58,1.4,28,28,0,0,1-8.34-1.72,39.57,39.57,0,0,0-.19,4.49,48.42,48.42,0,0,0,1.21,10.45,21.18,21.18,0,0,1,.85,8.26,5.41,5.41,0,0,1-2.11,3.62A12.51,12.51,0,0,1,56.81,476a9.35,9.35,0,0,1-6.14,2.63Z"/></g><path id="Path_2021" data-name="Path 2021" class="cls-8" d="M55.66,457.72c7.74,1.88,28.12,9.22,30.76,19.73,1.65,6.65-6.86,33.9-8,50.26-1.62,12.9-3,12.94-12.18,48.36l-37.27,4a.81.81,0,0,0,0-.22l-9.41-12.22c-1.21-1.55,5.64-34.84-10.4-69-11.17-23.86-1.88-29.1,6.1-33,13.18-6.53,7-2.58,20.58-13.4a27.72,27.72,0,0,1,1.89,2.9c1.13-.81,2.37-1.77,3.76-2.9"/><g id="Path_2022" data-name="Path 2022"><path d="M35,470.2a15.06,15.06,0,0,1-9.87-3.26,18.52,18.52,0,0,1-5.92-11.15v-.11a138.37,138.37,0,0,1,1.3-28,87,87,0,0,1,4.75-19.14c2.6-6.57,5.95-11.3,10-14.18A22,22,0,0,1,48,390.64a27.32,27.32,0,0,1,10.6,2.11A15.29,15.29,0,0,1,64.5,397c4.35.12,8.09,1.64,9.86,4a6.2,6.2,0,0,1,.83,5.65l-3.1-.21c-.25-1.43-.83-1.88-1.66-2.09-.94,2.28-3.64,4.86-8.14,7.88A103.39,103.39,0,0,1,47.89,420a17.24,17.24,0,0,0-.44,4.17v1l-.84.47a4.66,4.66,0,0,1-2.15.6,2.72,2.72,0,0,1-2.69-2c-.12-.22-.24-.44-.38-.66a10.6,10.6,0,0,0,1,7.08.81.81,0,0,0,.67.38,1.46,1.46,0,0,0,.68-.17l2.92-1.24L46,432.71a18,18,0,0,0,.51,8,26.39,26.39,0,0,0,3.76,8,38.66,38.66,0,0,0,9,9.1l1.67,1.26-1.65,1.28a54.36,54.36,0,0,1-10.85,6.46A34.34,34.34,0,0,1,35,470.11Z"/><path d="M47.94,392.16a20.4,20.4,0,0,0-11.79,3.56c-16.4,11.53-16,54.48-15.36,59.77,4.33,22.09,27.91,11.3,37.47,3.77-17.15-12.82-13.82-26.78-13.82-26.78-4,1.73-5.31-4.58-4.52-9.42a3.05,3.05,0,0,1,.74-1.88l.45-.15c1,.1,2.2,2.64,2.2,2.64.49,1.77,2.56.58,2.56.58a19.86,19.86,0,0,1,.66-5.37c9.76-4.23,22.37-11.58,22.6-16.12h.73a3.78,3.78,0,0,1,3.92,3.47c1.58-4.93-3.92-7.7-9.68-7.7h-.45c-1.64-3-8.36-6.44-15.71-6.44m0-3.2a28.32,28.32,0,0,1,11.3,2.35,17.44,17.44,0,0,1,6.07,4.1A13.77,13.77,0,0,1,75.7,400a7.89,7.89,0,0,1,1.06,7.16,3.19,3.19,0,0,1-4,2.08h0a3.13,3.13,0,0,1-2.07-2.07,30.4,30.4,0,0,1-7.53,6.4,104.57,104.57,0,0,1-13.88,7.54,14.91,14.91,0,0,0-.11,3.06,3.18,3.18,0,0,1-1.62,2.92,6.21,6.21,0,0,1-2.94.81,4.74,4.74,0,0,1-1.49-.24,6.62,6.62,0,0,0,.46,1.69,3.19,3.19,0,0,1,4.08,3.79,17.09,17.09,0,0,0,.55,7.42,25.14,25.14,0,0,0,3.56,7.53,37.3,37.3,0,0,0,8.51,8.59,3.2,3.2,0,0,1,.64,4.48h0a3.67,3.67,0,0,1-.58.6A55.33,55.33,0,0,1,49,468.43a35.13,35.13,0,0,1-14,3.41,16.65,16.65,0,0,1-10.89-3.62,20,20,0,0,1-6.46-12.07,1,1,0,0,1,0-.24A138.57,138.57,0,0,1,19,427.49,88.4,88.4,0,0,1,23.86,408c2.71-6.87,6.25-11.88,10.54-14.9A23.53,23.53,0,0,1,48,389Z"/></g><path id="Path_2023" data-name="Path 2023" class="cls-10" d="M7.72,604.24a79.18,79.18,0,0,1,15.06-34.16l45.07-.49s3.58,25,4.88,34.65Z"/><g id="Group_2139" data-name="Group 2139"><path id="Path_2025" data-name="Path 2025" class="cls-5" d="M116.94,379.56s-25,13.19-30.37,16.67-5.16,13-2.45,18.21,9.7,15.4,16.95,13.46,39.34-10,39.34-10a53.63,53.63,0,0,0-4.22-30.82c-7.42-16.2-12.32-11.11-19.27-7.42"/><path id="Path_2026" data-name="Path 2026" class="cls-6" d="M86.53,396.27c5.33-3.52,30.41-16.71,30.41-16.71,7-3.76,11.85-8.77,19.27,7.42a53.52,53.52,0,0,1,4.18,30.94s-32.11,8.06-39.34,10-14.22-8.26-17-13.46S81.16,399.71,86.53,396.27Z"/><path id="Path_2027" data-name="Path 2027" class="cls-5" d="M174,336.25s-42.9,25.54-49.38,30.68S111.1,391.88,122,409.49s21.73,17.27,30.13,15.4,57.48-14.31,57.48-14.31,14.84-10.06,3-44.63-30.51-34.56-38.59-29.7"/><path id="Path_2028" data-name="Path 2028" class="cls-6" d="M124.66,366.91c6.48-5.16,49.38-30.66,49.38-30.66,8.1-4.84,26.74-4.88,38.53,29.7s-3,44.63-3,44.63S160.41,423,152,424.89s-19.2,2.2-30.13-15.4S118.19,372,124.66,366.91Z"/><path id="Path_2029" data-name="Path 2029" class="cls-11" d="M167.32,343.43s-11.68,44.46,28.45,69.86c0,0-42.43-16.65-28.45-69.86"/><path id="Path_2030" data-name="Path 2030" class="cls-5" d="M168.77,381.9c-10.4-27.76.39-58.1,20.71-71a21.1,21.1,0,0,1,2.68-1.57c1-.55,2.05-1.06,3.1-1.52,20.25-9.93,49.23-24.48,49.23-24.48,19.23-9.63,54.05-3.92,73.2,42.86s-12.69,76.55-24.18,79.3-36.12,9.64-56,14.93c-24.95,7.87-57.4-8.15-68.73-38.45"/><path id="Path_2031" data-name="Path 2031" class="cls-6" d="M189.48,310.85a21.1,21.1,0,0,1,2.68-1.57c1-.55,2.05-1.06,3.1-1.52,20.25-9.93,49.23-24.48,49.23-24.48,19.23-9.64,54.05-3.92,73.2,42.84S305,402.67,293.51,405.44s-36.12,9.62-56,14.91c-24.95,7.87-57.4-8.15-68.73-38.45C158.37,354.16,169.16,323.8,189.48,310.85Z"/><path id="Path_2032" data-name="Path 2032" class="cls-5" d="M86.49,418.51l137.79-58.19,65.33,46.1c-12.58,3.18-34.22,9.19-52,13.93-13.28,4.18-28.66,1.6-41.86-6.27-15.2,3.77-38.12,9.59-43.6,10.79-6,1.34-13.37,1.89-21.09-4.55-10.15,2.56-25.39,6.32-30,7.62-5.65,1.51-11.07-4.31-14.5-9.41Z"/><path id="Path_2033" data-name="Path 2033" class="cls-12" d="M221.82,362.24c13,33.9,45.87,52.86,73.33,42.29s39.15-46.6,26.1-80.52-45.86-52.86-73.31-42.37-39.16,46.66-26.12,80.6"/><path id="Path_2034" data-name="Path 2034" class="cls-13" d="M229.71,359.21C218.82,331,228,300.83,250.05,290.79c23.2-7.27,50.05,8.87,60.86,37.16s1.75,58.37-20.36,68.41c-23.16,7.33-50-8.85-60.92-37.15"/><path id="Path_2035" data-name="Path 2035" class="cls-14" d="M233.79,357.68c-9.92-25.8-1.6-53.16,18.55-62.35,21.11-6.69,45.61,8.08,55.54,33.9s1.6,53.16-18.55,62.35c-21.11,6.66-45.63-8.08-55.54-33.9"/><path id="Path_2036" data-name="Path 2036" class="cls-11" d="M310.91,328c-10.81-28.3-37.66-44.44-60.86-37.17.69-.32,1.41-.6,2.12-.88,23.64-9.1,51.88,7.21,63.11,36.4s1.15,60.26-22.47,69.3c-.73.28-1.45.53-2.18.75,22.16-10.07,31.24-40.11,20.28-68.41"/><path id="Path_2037" data-name="Path 2037" class="cls-6" d="M247.94,281.64c27.45-10.55,60.26,8.4,73.33,42.31s1.33,70-26.12,80.53-60.26-8.38-73.33-42.3S220.52,292.26,247.94,281.64Zm42.69,114.67c.73-.23,1.47-.48,2.18-.76,23.62-9.08,33.69-40.11,22.47-69.3s-39.55-45.48-63.11-36.4l-2.12.88,1.67-.47-1.67.47c-22.09,10.1-31.23,40.12-20.34,68.42s37.75,44.48,60.92,37.17"/></g><g id="Group_2140" data-name="Group 2140"><g id="Path_2038" data-name="Path 2038"><path class="cls-9" d="M133.7,444.36l-1.47-1.73a47.55,47.55,0,0,0-4.5-4.59l-.83-.76.42-1a8.51,8.51,0,0,0,.38-2.11,2.1,2.1,0,0,1,.6-1.57c4.84-4.38,3.9-8,3-11.58a3.3,3.3,0,0,0-.13-.52,3.53,3.53,0,0,1,.4-3.21,2.53,2.53,0,0,1,2.07-1,3.64,3.64,0,0,1,1.22.21l.47.17.28.42a7.72,7.72,0,0,1,1.38,3.06,6.83,6.83,0,0,0,1.68-1.35h0a24,24,0,0,1,4.27-5,2.71,2.71,0,0,1,1.56-.59,1.9,1.9,0,0,1,1.32.53,3,3,0,0,1,.6,0A1.89,1.89,0,0,1,148.3,415a2.3,2.3,0,0,1,1.37,1.53,1.42,1.42,0,0,1,0,.58,2.4,2.4,0,0,1,.53.7c.26.6.51,1.69-.68,4.24a21.76,21.76,0,0,1-2.84,4.44,87.42,87.42,0,0,1-6.35,6.42l-1,.91a27,27,0,0,1-1.88,3.91c-.57.94-1.13,1.89-1.66,2.88-.34.59-.68,1.21-1,1.89l-1.13,1.88Z"/><path d="M144.49,414.84a1,1,0,0,0-.62.28,24.66,24.66,0,0,0-3.92,4.61c-.58.83-4.06,3.77-4.48,1.13a6.06,6.06,0,0,0-1.18-2.84s-2.3-.85-1.57,2.05c.93,3.77,2.47,8.42-3.35,13.69a17,17,0,0,1-.56,3.09,48.51,48.51,0,0,1,4.65,4.75c.9-1.57,1.75-3.17,2.71-4.71a29.86,29.86,0,0,0,1.88-4c2.53-2.4,5.65-5.2,7.54-7.44,2.48-3,4.25-7.21,2.88-7.21a.71.71,0,0,0-.29,0h0c-.3,0,.16-1,0-1.25-.41-1.26-1.33-.3-2.63,1,.79-.77,1.88-2.69,1-2.69s-1.4.43-2.07,1.32c.54-1.06.58-1.89.15-1.89m0-3.2a3.72,3.72,0,0,1,1.88.47h.13a3.5,3.5,0,0,1,3,1.7,4,4,0,0,1,1.68,2.2,1.4,1.4,0,0,1,.11.4,4.1,4.1,0,0,1,.46.71,6.66,6.66,0,0,1-.68,5.65,22.71,22.71,0,0,1-3.07,4.79,88.71,88.71,0,0,1-6.46,6.55l-.72.68a30.67,30.67,0,0,1-1.88,3.76c-.57.91-1.09,1.89-1.64,2.81-.34.6-.68,1.22-1,1.88a3.19,3.19,0,0,1-4.35,1.19l0,0a2.55,2.55,0,0,1-.83-.7,52.07,52.07,0,0,0-4.35-4.44,3.2,3.2,0,0,1-.85-3.56,8.67,8.67,0,0,0,.28-1.68,3.57,3.57,0,0,1,1.13-2.61,8.73,8.73,0,0,0,3.13-5.14,13,13,0,0,0-.62-4.84l-.13-.55a5.15,5.15,0,0,1,.65-4.58,4.27,4.27,0,0,1,3.36-1.56,5.35,5.35,0,0,1,1.77.3,3.29,3.29,0,0,1,1.5,1.15,10.17,10.17,0,0,1,.78,1.26,22.33,22.33,0,0,1,4.31-4.89,4.23,4.23,0,0,1,2.5-.89Z"/></g><path id="Path_2039" data-name="Path 2039" class="cls-15" d="M132,431.31c-2.75-3.61-29.7,46.63-45.2,55.16-36.95-1.19-42.65-10-55.61-12.35C3,460.94-4.86,492.06,15.29,497.34c24.78,5.44,30.62,14.57,84.12,14.86C109.5,497.13,118.94,471,138.18,435c-3.35-1.74-5.44-2.72-6.19-3.77Z"/></g></g><path id="Path_2040" data-name="Path 2040" class="cls-6" d="M229.71,359.21C218.82,331,228,300.83,250.05,290.79c23.2-7.27,50.05,8.87,60.86,37.16s1.75,58.37-20.36,68.41c-23.16,7.33-50.05-8.85-60.92-37.15"/></g><path id="Path_1362-2-2" data-name="Path 1362-2" class="cls-4" d="M428.66,245.84a11.34,11.34,0,0,1,11.29-7.3,15,15,0,0,1,2.91.32A17.7,17.7,0,0,1,458.31,231a21.2,21.2,0,0,1,5.08.61,22.39,22.39,0,0,1,18-8.15c9.08,0,16.81,4.62,19.75,11.09a17.44,17.44,0,0,1,7-1.46c8,0,14.42,5.18,14.42,11.55a7,7,0,0,1,0,1.12Z"/></svg>