<svg id="Layer_1" data-name="Layer 1" xmlns="http://www.w3.org/2000/svg" viewBox="0 0 230.18 215.7"><defs><style>.cls-1{fill:#e5a901;isolation:isolate;opacity:0.83;}.cls-2{fill:#65c8d0;}.cls-3{fill:none;}.cls-12,.cls-3,.cls-4,.cls-5,.cls-7{stroke:#000;stroke-linejoin:round;stroke-width:1.7px;}.cls-4,.cls-6{fill:#ffbf9d;}.cls-5{fill:#c1c7ee;}.cls-7{fill:#424242;}.cls-8{fill:#29b3be;}.cls-9{fill:#c8ebee;}.cls-10{fill:#c2c2c2;}.cls-11{fill:#dedede;}.cls-12{fill:#d2d7f3;}</style></defs><path id="Path_1362" data-name="Path 1362" class="cls-1" d="M109.7,79.68a6.53,6.53,0,0,1,6.52-4.15,7.92,7.92,0,0,1,1.68.17,10.22,10.22,0,0,1,8.92-4.55,12,12,0,0,1,2.92.36,13,13,0,0,1,10.39-4.71c5.24,0,9.71,2.67,11.4,6.41a9.87,9.87,0,0,1,4.05-.85c4.59,0,8.32,3,8.32,6.67,0,.22,0,.43,0,.65Z" transform="translate(-6 -12.46)"/><g id="Group_2182" data-name="Group 2182"><g id="Group_2141" data-name="Group 2141"><path id="Path_2016" data-name="Path 2016" class="cls-2" d="M96.72,132.26c-1.08-1.62-.45-.81-1.16-2.57,1-.74,21-10,21-10a4.55,4.55,0,0,1,5.49,1,6.43,6.43,0,0,1,1.65,6.19s-24.84,5.4-27,5.45Z" transform="translate(-6 -12.46)"/><path id="Path_2017" data-name="Path 2017" class="cls-3" d="M96.72,132.26c-1.08-1.62-.45-.81-1.16-2.57,1-.74,21-10,21-10a4.55,4.55,0,0,1,5.49,1,6.43,6.43,0,0,1,1.65,6.19s-24.84,5.4-27,5.45Z" transform="translate(-6 -12.46)"/><g id="Group_2138" data-name="Group 2138"><path id="Path_2018" data-name="Path 2018" class="cls-4" d="M141.58,137.21a9.53,9.53,0,0,0,1.63,2.42.24.24,0,0,0,.35,0v0c.9-1,1.67-2.2,2.54-3.27a15.77,15.77,0,0,0,1.26-2c1.49-1.09,3.28-2.35,4.43-3.41,1.61-1.47,2.88-3.77,1.85-3.59-.22,0,.13-.52.1-.65-.14-.69-.69-.25-1.46.32.47-.35,1.16-1.28.69-1.34s-.76.13-1.17.55c.48-.7.45-1.16-.14-.83a13.29,13.29,0,0,0-2.39,2.17c-.36.39-2.4,1.71-2.43.28a3.34,3.34,0,0,0-.43-1.58s-1.15-.61-1,1c.23,2,.73,4.6-2.71,7a31.41,31.41,0,0,0-1.16,3,11.25,11.25,0,0,1-1-1.27" transform="translate(-6 -12.46)"/><path id="Path_2019" data-name="Path 2019" class="cls-5" d="M144.26,133.11c-1.2-2.09-15.92,19.84-24.65,23.27-16.57-2.71-21.45-4.16-26.68-5.84l8.34,17.66c4.69.58,12.42.59,20.35,1.67,6.35-7.25,13-16.76,25.64-34.4-1.36.95-2.68-1.8-3-2.36Z" transform="translate(-6 -12.46)"/></g><g id="Path_2020" data-name="Path 2020"><path class="cls-6" d="M88.9,159.72a3,3,0,0,1-2.22-1l-.19-.22,0-.28c-.1-1.12-1.32-3.76-2.4-6.09-1.35-2.91-2.62-5.66-2.67-7.16h0v0c0-.16,0-.35,1.17-3,.22-.49.53-1.19.8-1.75l.31-.61a1,1,0,0,0,.09-.15,5.38,5.38,0,0,0-.89-2.3,39.06,39.06,0,0,0-2.25-3.35c-1.12-1.54-1.47-2.05-1.47-2.57A2.58,2.58,0,0,1,80.59,129c.55-.38.69-.52.7-.82a2.27,2.27,0,0,1,.76-1.88,2.45,2.45,0,0,1,1.55-.45c.22,0,.44,0,.65,0l.53,0c.4,0,.47-.07.47-.07s.1-.11.1-.55a9.47,9.47,0,0,0-.45-2.79l-.13-.4.24-.35A7.19,7.19,0,0,1,89,119a15.69,15.69,0,0,1,4.48-.59,15.9,15.9,0,0,1,3.26.29l.2.05.15.14.2.19c.54,0,1.13.08,1.79.17l.46.06.2.42c.59,1.28.79,3.37.59,6.2a5,5,0,0,0,.67,3.5,8.63,8.63,0,0,0,2.07,2.19,1.22,1.22,0,0,1,.63.94c0,.5-.31.77-.65,1.06a9,9,0,0,1-.89.65c-.45.3-.77.52-.76.67a4.81,4.81,0,0,0,.11.63,2.4,2.4,0,0,1,.08.8,1.22,1.22,0,0,1-.47.83,1.82,1.82,0,0,1,0,1,1.63,1.63,0,0,1-.82.94,11.42,11.42,0,0,0-.07,2c0,1.08,0,1.52-.38,1.85a2.83,2.83,0,0,1-1.88.54,16.21,16.21,0,0,1-5.11-1.19,24.5,24.5,0,0,0,.39,9.27c.91,3.69.5,4.88-.49,5.53a5.56,5.56,0,0,1-1.16,1.41,4.26,4.26,0,0,1-2.7,1.19Z" transform="translate(-6 -12.46)"/><path d="M88.9,158.87c1.59,0,3.07-1.89,3.11-2.17.1-.55,1.66.15.42-4.91-.89-3.6-.92-8.71-.13-10.59,2.24.87,5.85,2.07,7,1.11.22-.18-.23-3.53.43-3.82s.66-.69.5-1.21-.27-.4.24-.67.14-.66.05-1.59,1-1.26,1.95-2,0,0-2.19-3a5.8,5.8,0,0,1-.83-4.06c.07-1,.28-4.08-.51-5.78a20,20,0,0,0-2-.17c-.25-.25-.42-.4-.42-.4-.82-.22-8.17-1.15-10.8,2.66a10.14,10.14,0,0,1,.5,3c0,1.9-1.42,1.43-2.6,1.43-.79,0-1.45.21-1.46,1.48,0,1.59-2.14,1.45-2.14,3,0,.78,5.06,6.22,4.58,8.6,0,0,0,0,0,0a43.41,43.41,0,0,0-2.33,5.16c.09,2.59,4.84,10.59,5.07,13.2a2.09,2.09,0,0,0,1.59.77m0,1.7a3.79,3.79,0,0,1-2.85-1.32,1.75,1.75,0,0,1-.44-1c-.08-1-1.32-3.65-2.32-5.8-1.67-3.62-2.69-5.93-2.75-7.49v-.06c0-.35,0-.53,1.24-3.34.22-.5.54-1.21.82-1.78.11-.23.21-.42.29-.56a6.8,6.8,0,0,0-.81-1.81,38.15,38.15,0,0,0-2.15-3.17c-1.15-1.6-1.63-2.26-1.63-3.07a3.43,3.43,0,0,1,1.81-2.92l.33-.23a3,3,0,0,1,1.08-2.42A3.24,3.24,0,0,1,83.6,125c.25,0,.49,0,.7,0h.19a8.09,8.09,0,0,0-.4-2.28,1.71,1.71,0,0,1,.22-1.5,8,8,0,0,1,4.43-3,16.39,16.39,0,0,1,4.74-.63,15.85,15.85,0,0,1,3.47.32,1.85,1.85,0,0,1,.69.37c.48,0,1,.08,1.54.16a1.69,1.69,0,0,1,1.32,1c.66,1.43.88,3.59.67,6.61a4.07,4.07,0,0,0,.51,2.95,7.91,7.91,0,0,0,1.88,2,2.05,2.05,0,0,1,1,1.6,2.12,2.12,0,0,1-1,1.74,8.25,8.25,0,0,1-1,.7l-.33.23,0,.19a3.28,3.28,0,0,1,.09,1.08,2,2,0,0,1-.4,1,2.46,2.46,0,0,1-.09,1,2.35,2.35,0,0,1-.84,1.18c0,.43,0,1.09,0,1.45s0,.62,0,.87a2.11,2.11,0,0,1-.68,1.65,3.75,3.75,0,0,1-2.43.74,14.92,14.92,0,0,1-4.43-.91,20,20,0,0,0-.1,2.38,25.48,25.48,0,0,0,.64,5.55,11.2,11.2,0,0,1,.45,4.39,2.87,2.87,0,0,1-1.12,1.92,6.56,6.56,0,0,1-1.25,1.47,5,5,0,0,1-3.26,1.4Z" transform="translate(-6 -12.46)"/></g><path id="Path_2021" data-name="Path 2021" class="cls-5" d="M91.46,149.5c4.11,1,14.93,4.9,16.33,10.48.88,3.53-3.64,18-4.25,26.69-.86,6.85-1.62,6.87-6.47,25.68l-19.79,2.12a.49.49,0,0,0,0-.12l-5-6.49c-.64-.82,3-18.5-5.52-36.62-5.93-12.67-1-15.45,3.24-17.53,7-3.47,3.74-1.37,10.93-7.12a16.07,16.07,0,0,1,1,1.54c.6-.43,1.26-.94,2-1.54" transform="translate(-6 -12.46)"/><g id="Path_2022" data-name="Path 2022"><path d="M80.49,156.13a8,8,0,0,1-5.24-1.73,9.83,9.83,0,0,1-3.14-5.92v-.06a73,73,0,0,1,.69-14.85,46.08,46.08,0,0,1,2.52-10.16c1.38-3.49,3.16-6,5.3-7.53a11.68,11.68,0,0,1,6.75-2A14.54,14.54,0,0,1,93,115a8.12,8.12,0,0,1,3.15,2.25c2.31.06,4.3.87,5.24,2.15a3.29,3.29,0,0,1,.44,3l-1.65-.11c-.13-.76-.44-1-.88-1.11-.5,1.21-1.93,2.58-4.32,4.18a55,55,0,0,1-7.65,4.12,9.17,9.17,0,0,0-.23,2.21l0,.52-.45.25a2.38,2.38,0,0,1-1.14.32,1.44,1.44,0,0,1-1.43-1.06,4,4,0,0,0-.2-.35,5.64,5.64,0,0,0,.54,3.76.44.44,0,0,0,.36.2.74.74,0,0,0,.36-.09l1.55-.66-.39,1.64a9.65,9.65,0,0,0,.27,4.25,14,14,0,0,0,2,4.27,20.42,20.42,0,0,0,4.75,4.83l.89.67-.88.68a28.76,28.76,0,0,1-5.76,3.43,18.17,18.17,0,0,1-7.11,1.73Z" transform="translate(-6 -12.46)"/><path d="M87.36,114.69a10.8,10.8,0,0,0-6.26,1.89c-8.71,6.12-8.49,28.93-8.16,31.74,2.3,11.73,14.82,6,19.9,2-9.11-6.81-7.34-14.22-7.34-14.22-2.15.92-2.82-2.43-2.4-5a1.63,1.63,0,0,1,.39-1l.24-.08c.54.05,1.17,1.4,1.17,1.4.26.94,1.36.31,1.36.31a10.48,10.48,0,0,1,.35-2.85c5.18-2.25,11.88-6.15,12-8.56H99a2,2,0,0,1,2.08,1.84c.84-2.62-2.08-4.09-5.14-4.09H95.7c-.87-1.62-4.44-3.42-8.34-3.42m0-1.7a15.13,15.13,0,0,1,6,1.25,9.27,9.27,0,0,1,3.22,2.18,7.3,7.3,0,0,1,5.52,2.49,4.18,4.18,0,0,1,.56,3.8,1.69,1.69,0,0,1-2.13,1.1,1.66,1.66,0,0,1-1.1-1.1,16.18,16.18,0,0,1-4,3.4,54.8,54.8,0,0,1-7.37,4A7.78,7.78,0,0,0,88,131.7a1.69,1.69,0,0,1-.86,1.55,3.37,3.37,0,0,1-1.56.43,2.56,2.56,0,0,1-.79-.13,3.53,3.53,0,0,0,.24.9,1.7,1.7,0,0,1,1.62.32,1.68,1.68,0,0,1,.55,1.69,9.09,9.09,0,0,0,.29,3.94,13.4,13.4,0,0,0,1.89,4,19.87,19.87,0,0,0,4.52,4.56,1.7,1.7,0,0,1,.34,2.38,1.88,1.88,0,0,1-.31.32,29.39,29.39,0,0,1-6,3.53A18.63,18.63,0,0,1,80.49,157a8.84,8.84,0,0,1-5.78-1.92,10.65,10.65,0,0,1-3.43-6.41.69.69,0,0,1,0-.13A73.58,73.58,0,0,1,72,133.45a47.24,47.24,0,0,1,2.57-10.35c1.44-3.65,3.32-6.31,5.6-7.91a12.47,12.47,0,0,1,7.24-2.2Z" transform="translate(-6 -12.46)"/></g><path id="Path_2023" data-name="Path 2023" class="cls-7" d="M66,227.31A42,42,0,0,1,74,209.17l23.93-.26s1.9,13.29,2.59,18.4Z" transform="translate(-6 -12.46)"/><g id="Group_2139" data-name="Group 2139"><path id="Path_2025" data-name="Path 2025" class="cls-2" d="M124,108s-13.3,7-16.13,8.85-2.74,6.91-1.3,9.67,5.15,8.18,9,7.15,20.89-5.3,20.89-5.3A28.47,28.47,0,0,0,134.22,112c-3.94-8.6-6.54-5.9-10.23-3.94" transform="translate(-6 -12.46)"/><path id="Path_2026" data-name="Path 2026" class="cls-3" d="M107.85,116.87C110.68,115,124,108,124,108c3.69-2,6.29-4.66,10.23,3.94a28.39,28.39,0,0,1,2.22,16.43s-17.05,4.28-20.89,5.3-7.55-4.39-9-7.15S105,118.7,107.85,116.87Z" transform="translate(-6 -12.46)"/><path id="Path_2027" data-name="Path 2027" class="cls-2" d="M154.32,85s-22.78,13.56-26.22,16.29-7.2,13.25-1.43,22.6,11.54,9.17,16,8.18,30.52-7.6,30.52-7.6,7.88-5.34,1.62-23.7S158.61,82.42,154.32,85" transform="translate(-6 -12.46)"/><path id="Path_2028" data-name="Path 2028" class="cls-3" d="M128.1,101.28C131.54,98.54,154.32,85,154.32,85c4.3-2.57,14.2-2.59,20.46,15.77s-1.62,23.7-1.62,23.7-26.08,6.61-30.52,7.6-10.2,1.17-16-8.18S124.66,104,128.1,101.28Z" transform="translate(-6 -12.46)"/><path id="Path_2029" data-name="Path 2029" class="cls-8" d="M150.75,88.81s-6.2,23.61,15.11,37.1c0,0-22.53-8.84-15.11-37.1" transform="translate(-6 -12.46)"/><path id="Path_2030" data-name="Path 2030" class="cls-2" d="M151.52,109.24c-5.52-14.74.21-30.85,11-37.73a11.2,11.2,0,0,1,1.42-.83q.81-.44,1.65-.81c10.75-5.27,26.14-13,26.14-13,10.21-5.11,28.7-2.08,38.87,22.76s-6.74,40.65-12.84,42.11-19.18,5.12-29.74,7.93c-13.25,4.18-30.48-4.33-36.5-20.42" transform="translate(-6 -12.46)"/><path id="Path_2031" data-name="Path 2031" class="cls-3" d="M162.52,71.51a11.2,11.2,0,0,1,1.42-.83q.81-.44,1.65-.81c10.75-5.27,26.14-13,26.14-13,10.21-5.12,28.7-2.08,38.87,22.75s-6.74,40.65-12.84,42.12-19.18,5.11-29.74,7.92c-13.25,4.18-30.48-4.33-36.5-20.42C146,94.51,151.73,78.39,162.52,71.51Z" transform="translate(-6 -12.46)"/><path id="Path_2032" data-name="Path 2032" class="cls-2" d="M107.83,128.68,181,97.78l34.69,24.48c-6.68,1.69-18.17,4.88-27.63,7.4-7.05,2.22-15.22.85-22.23-3.33-8.07,2-20.24,5.09-23.15,5.73-3.2.71-7.1,1-11.2-2.42C126.09,131,118,133,115.53,133.69c-3,.8-5.88-2.29-7.7-5Z" transform="translate(-6 -12.46)"/><path id="Path_2033" data-name="Path 2033" class="cls-9" d="M179.69,98.8c6.92,18,24.36,28.07,38.94,22.46s20.79-24.75,13.86-42.76S208.14,50.43,193.56,56,172.77,80.78,179.69,98.8" transform="translate(-6 -12.46)"/><path id="Path_2034" data-name="Path 2034" class="cls-10" d="M183.88,97.19c-5.78-15-.93-31,10.8-36.33C207,57,221.26,65.57,227,80.59s.93,31-10.81,36.33c-12.3,3.89-26.57-4.7-32.35-19.73" transform="translate(-6 -12.46)"/><path id="Path_2035" data-name="Path 2035" class="cls-11" d="M186.05,96.38c-5.27-13.7-.85-28.23,9.85-33.11,11.21-3.55,24.22,4.29,29.49,18s.85,28.23-9.85,33.11c-11.21,3.54-24.23-4.29-29.49-18" transform="translate(-6 -12.46)"/><path id="Path_2036" data-name="Path 2036" class="cls-8" d="M227,80.6C221.26,65.57,207,57,194.68,60.86c.37-.17.75-.32,1.13-.47,12.55-4.83,27.55,3.83,33.51,19.33s.61,32-11.93,36.8c-.39.15-.77.28-1.16.4C228,111.57,232.82,95.62,227,80.59" transform="translate(-6 -12.46)"/><path id="Path_2037" data-name="Path 2037" class="cls-3" d="M193.56,56c14.58-5.6,32,4.46,38.94,22.47s.71,37.16-13.87,42.76-32-4.45-38.94-22.46S179,61.64,193.56,56Zm22.67,60.89c.39-.12.78-.25,1.16-.4,12.54-4.82,17.89-21.3,11.93-36.8s-21-24.15-33.51-19.33l-1.13.47.89-.25-.89.25c-11.73,5.36-16.58,21.3-10.8,36.33s20.05,23.62,32.35,19.74" transform="translate(-6 -12.46)"/></g><g id="Group_2140" data-name="Group 2140"><g id="Path_2038" data-name="Path 2038"><path class="cls-6" d="M132.9,142.41l-.78-.92a26.2,26.2,0,0,0-2.39-2.44l-.44-.4.22-.55a4.35,4.35,0,0,0,.2-1.12,1.11,1.11,0,0,1,.32-.83c2.57-2.33,2.07-4.27,1.59-6.15a2.29,2.29,0,0,0-.07-.28,1.87,1.87,0,0,1,.21-1.7,1.34,1.34,0,0,1,1.1-.51,1.89,1.89,0,0,1,.65.11l.25.09.15.22a4.17,4.17,0,0,1,.73,1.63,3.61,3.61,0,0,0,.89-.72h0a12.79,12.79,0,0,1,2.27-2.65,1.41,1.41,0,0,1,.83-.31,1,1,0,0,1,.7.28,1.58,1.58,0,0,1,.32,0,1,1,0,0,1,1,.68,1.22,1.22,0,0,1,.73.81.87.87,0,0,1,0,.31,1.29,1.29,0,0,1,.28.37c.14.32.27.9-.36,2.25a11.41,11.41,0,0,1-1.51,2.36,46.42,46.42,0,0,1-3.37,3.41l-.51.48a13.9,13.9,0,0,1-1,2.08c-.3.5-.6,1-.88,1.53-.18.31-.36.64-.55,1l-.6,1Z" transform="translate(-6 -12.46)"/><path d="M138.63,126.73a.57.57,0,0,0-.33.15,13,13,0,0,0-2.08,2.45c-.31.44-2.16,2-2.38.6a3.21,3.21,0,0,0-.63-1.51s-1.22-.45-.83,1.09c.49,2,1.31,4.47-1.78,7.27a9,9,0,0,1-.3,1.64,25.58,25.58,0,0,1,2.47,2.52c.48-.83.93-1.68,1.44-2.5a15.94,15.94,0,0,0,1-2.13c1.34-1.27,3-2.76,4-3.95,1.32-1.57,2.26-3.83,1.53-3.83a.4.4,0,0,0-.15,0h0c-.16,0,.08-.54,0-.66-.22-.67-.71-.16-1.4.51.42-.41,1-1.43.52-1.43s-.74.23-1.1.7c.29-.56.31-1,.08-1m0-1.7a1.92,1.92,0,0,1,1,.25h.07a1.86,1.86,0,0,1,1.6.9,2.12,2.12,0,0,1,.89,1.17.83.83,0,0,1,.06.21,2.45,2.45,0,0,1,.24.38,3.51,3.51,0,0,1-.36,3,11.94,11.94,0,0,1-1.63,2.54,46.21,46.21,0,0,1-3.43,3.48l-.38.36a16,16,0,0,1-1,2c-.3.48-.58,1-.87,1.49-.18.32-.36.65-.55,1a1.69,1.69,0,0,1-2.32.62,1.43,1.43,0,0,1-.44-.37,27.07,27.07,0,0,0-2.31-2.36,1.7,1.7,0,0,1-.45-1.89,4.73,4.73,0,0,0,.15-.89,1.89,1.89,0,0,1,.6-1.39,4.63,4.63,0,0,0,1.66-2.73,6.87,6.87,0,0,0-.33-2.57l-.07-.29a2.72,2.72,0,0,1,.35-2.43,2.25,2.25,0,0,1,1.78-.83,2.91,2.91,0,0,1,.94.16,1.72,1.72,0,0,1,.8.61,5.5,5.5,0,0,1,.41.67,12.08,12.08,0,0,1,2.29-2.6,2.27,2.27,0,0,1,1.33-.47Z" transform="translate(-6 -12.46)"/></g><path id="Path_2039" data-name="Path 2039" class="cls-12" d="M132,135.48c-1.46-1.92-15.77,24.76-24,29.29-19.62-.63-22.65-5.33-29.53-6.56-15-7-19.15,9.53-8.45,12.33,13.16,2.89,16.26,7.74,44.67,7.89,5.36-8,10.37-21.87,20.59-41-1.78-.92-2.89-1.44-3.29-2Z" transform="translate(-6 -12.46)"/></g></g><path id="Path_2040" data-name="Path 2040" class="cls-3" d="M183.88,97.19c-5.78-15-.93-31,10.8-36.33C207,57,221.26,65.57,227,80.59s.93,31-10.81,36.33c-12.3,3.89-26.58-4.7-32.35-19.73" transform="translate(-6 -12.46)"/></g><path id="Path_1360" data-name="Path 1360" class="cls-1" d="M74.38,42.15c-.86-3-4.21-5.24-8.22-5.24a10.92,10.92,0,0,0-2.13.22c-2-3.39-6.27-5.74-11.24-5.74a15.36,15.36,0,0,0-3.7.45c-2.68-3.55-7.54-5.93-13.1-5.93-6.62,0-12.25,3.36-14.39,8.07a12.73,12.73,0,0,0-5.1-1.06C10.7,32.92,6,36.69,6,41.34a7.34,7.34,0,0,0,0,.81Z" transform="translate(-6 -12.46)"/><path id="Path_1362-2" data-name="Path 1362" class="cls-1" d="M112.49,21.63a4.66,4.66,0,0,1,4.64-3,6,6,0,0,1,1.2.13,7.27,7.27,0,0,1,6.35-3.24,8.72,8.72,0,0,1,2.09.25,9.2,9.2,0,0,1,7.4-3.35c3.73,0,6.91,1.9,8.12,4.56a7.15,7.15,0,0,1,2.88-.6c3.27,0,5.93,2.13,5.93,4.75a3.44,3.44,0,0,1,0,.46Z" transform="translate(-6 -12.46)"/></svg>