<svg xmlns="http://www.w3.org/2000/svg" width="236.26" height="228.157">
    <defs>
        <style>
            .cls-1{fill:#65c8d0}.cls-2{fill:none}.cls-2,.cls-4{stroke:#000;stroke-width:1.7px}.cls-2,.cls-4,.cls-5{stroke-linejoin:round}.cls-5{fill:#ffbf9d}.cls-4{fill:#c1c7ee}.cls-9{fill:#29b3be}.cls-15{fill:#fff;opacity:.83}.cls-16,.cls-17{stroke:none}.cls-17{fill:#000}
        </style>
    </defs>
    <g id="Group_2191" data-name="Group 2191" transform="translate(-388 -5827.72)">
        <g id="Group_2182" data-name="Group 2182" transform="translate(452 5882.203)">
            <g id="Group_2141" data-name="Group 2141">
                <path id="Path_2016" data-name="Path 2016" class="cls-1" d="M1624.611 5208.433c-1.083-1.621-.446-.816-1.157-2.575.97-.736 21.024-10.032 21.024-10.032a4.538 4.538 0 0 1 5.488.969 6.4 6.4 0 0 1 1.65 6.184s-24.838 5.402-27.005 5.454z" transform="translate(-1591.891 -5130.654)"/>
                <path id="Path_2017" data-name="Path 2017" class="cls-2" d="M1624.611 5208.433c-1.083-1.621-.446-.816-1.157-2.575.97-.736 21.024-10.032 21.024-10.032a4.538 4.538 0 0 1 5.488.969 6.4 6.4 0 0 1 1.65 6.184s-24.838 5.402-27.005 5.454z" transform="translate(-1591.891 -5130.654)"/>
                <g id="Group_2138" data-name="Group 2138" transform="translate(28.932 70.807)">
                    <path id="Path_2018" data-name="Path 2018" d="M1575.617 5217.228a9.587 9.587 0 0 0 1.636 2.422.241.241 0 0 0 .36-.033c.9-1.051 1.669-2.2 2.535-3.271a15.251 15.251 0 0 0 1.259-1.979c1.491-1.091 3.281-2.356 4.427-3.407 1.61-1.479 2.885-3.776 1.858-3.593-.223.039.123-.522.094-.656-.137-.686-.692-.244-1.463.329.473-.354 1.166-1.287.7-1.346-.516-.069-.76.129-1.179.551.481-.7.455-1.157-.14-.834a13.348 13.348 0 0 0-2.385 2.17c-.362.39-2.4 1.714-2.432.281a3.307 3.307 0 0 0-.427-1.581s-1.156-.6-.97.976c.23 2.006.725 4.6-2.708 6.978-.1.064-1.152 2.863-1.164 2.992a11.721 11.721 0 0 1-1.009-1.271" transform="translate(-1526.97 -5205.305)" style="fill:#ffbf9d;stroke-linejoin:round;stroke:#000;stroke-width:1.7px"/>
                    <path id="Path_2019" data-name="Path 2019" class="cls-4" d="M1636.911 5217.913c-1.2-2.09-15.912 19.844-24.651 23.271-16.561-2.708-21.445-4.155-26.675-5.84l8.34 17.659c4.688.579 12.42.593 20.349 1.672 6.353-7.255 13.027-16.761 25.64-34.4-1.36.946-2.675-1.8-3.003-2.362z" transform="translate(-1585.586 -5210.095)"/>
                </g>
                <g id="Path_2020" data-name="Path 2020" class="cls-5">
                    <path class="cls-16" d="M1666.615 5235.981c-.825 0-1.591-.361-2.217-1.046l-.195-.213-.025-.287c-.097-1.118-1.32-3.757-2.398-6.085-1.348-2.91-2.62-5.658-2.67-7.16l-.001-.015v-.014c0-.167 0-.357 1.168-3 .217-.489.532-1.19.804-1.753.128-.263.23-.462.311-.609.024-.042.053-.093.088-.15-.01-.363-.177-1.053-.89-2.302-.651-1.144-1.54-2.369-2.254-3.353-1.117-1.54-1.47-2.052-1.469-2.564 0-1.24.865-1.828 1.438-2.217.557-.378.697-.514.7-.82.007-.848.263-1.48.761-1.875.506-.401 1.129-.448 1.553-.448.22 0 .436.014.646.027.192.012.372.023.537.023.394 0 .468-.07.47-.073.002-.001.1-.105.093-.546a9.237 9.237 0 0 0-.45-2.79l-.132-.401.24-.348c.854-1.24 2.195-2.146 3.985-2.69 1.3-.397 2.809-.598 4.484-.598 1.497 0 2.803.171 3.252.292l.2.055.152.14c.005.004.078.071.201.19.545.023 1.133.077 1.788.164l.463.061.196.424c.595 1.281.793 3.368.59 6.2-.12 1.653.075 2.666.673 3.5 1.016 1.413 1.702 1.916 2.07 2.186.274.2.613.45.63.94.017.5-.308.774-.652 1.065-.302.254-.612.46-.885.642-.452.301-.771.526-.762.675.022.242.065.44.107.632.06.267.115.52.082.8-.03.245-.137.57-.467.83.075.293.12.645.005 1.011-.123.393-.397.708-.817.941-.1.41-.08 1.476-.072 1.956.02 1.076.028 1.52-.374 1.849-.443.366-1.06.545-1.883.545-1.217 0-2.897-.392-5.116-1.197-.431 2.04-.383 6.097.397 9.27.91 3.696.493 4.878-.492 5.534-.293.634-1.121 1.371-1.162 1.407-.616.546-1.585 1.195-2.701 1.195z" transform="translate(-1641.717 -5130.74)"/>
                    <path class="cls-17" d="M1666.615 5235.131c1.592 0 3.07-1.892 3.117-2.174.095-.553 1.659.15.413-4.91-.884-3.596-.916-8.71-.124-10.586 2.238.863 5.85 2.069 7.013 1.107.223-.181-.226-3.528.436-3.82.652-.293.66-.688.495-1.214-.158-.53-.268-.393.238-.665.485-.262.14-.665.058-1.59-.074-.927 1.027-1.266 1.946-2.038.911-.77 0 0-2.19-3.046-.752-1.047-.96-2.27-.83-4.055.07-.98.276-4.08-.514-5.783a18.31 18.31 0 0 0-2.034-.168c-.254-.252-.417-.402-.417-.402-.828-.224-8.173-1.154-10.8 2.657.315.952.48 1.985.493 3.045.027 1.895-1.422 1.432-2.596 1.431-.789 0-1.454.21-1.464 1.481-.015 1.585-2.14 1.448-2.138 3.03-.001.774 5.06 6.217 4.581 8.6 0-.02-.004-.03-.012-.03-.18 0-2.327 4.957-2.327 5.16.085 2.581 4.838 10.588 5.066 13.2.51.558 1.056.77 1.59.77m0 1.7c-.746 0-1.845-.23-2.844-1.323a1.698 1.698 0 0 1-.44-1c-.084-.968-1.325-3.648-2.322-5.801-1.676-3.618-2.697-5.927-2.75-7.49v-.056c0-.357 0-.536 1.241-3.344.219-.495.538-1.205.817-1.78.111-.23.205-.416.285-.564-.06-.28-.245-.837-.806-1.804-.624-1.075-1.469-2.24-2.148-3.176-1.154-1.593-1.632-2.252-1.63-3.064-.002-1.69 1.176-2.49 1.81-2.92.101-.069.242-.164.329-.234.032-1.064.395-1.879 1.08-2.422.715-.567 1.53-.633 2.082-.633.246 0 .487.015.7.029l.19.011a8.296 8.296 0 0 0-.4-2.283 1.7 1.7 0 0 1 .214-1.497c.966-1.402 2.46-2.419 4.437-3.022 1.381-.42 2.973-.633 4.732-.633 1.664 0 3.013.196 3.473.321.256.069.49.196.688.372.479.03.989.08 1.544.154a1.7 1.7 0 0 1 1.319.97c.664 1.434.882 3.599.666 6.619-.122 1.676.118 2.389.516 2.944.936 1.302 1.552 1.753 1.882 1.996.307.225.946.694.976 1.596.032.912-.56 1.412-.953 1.743-.34.286-.67.506-.961.7-.106.07-.232.155-.337.23l.04.187c.065.295.146.661.096 1.082a2.06 2.06 0 0 1-.4 1.007c.03.299.016.636-.095.989-.11.35-.343.8-.838 1.183-.03.424-.019 1.083-.012 1.445.006.322.011.626.003.876-.01.332-.035 1.108-.685 1.642-.597.492-1.412.742-2.425.742-1.124 0-2.584-.3-4.431-.91-.07.632-.113 1.427-.104 2.38.02 1.947.253 3.969.641 5.55.49 1.983.634 3.38.456 4.394-.192 1.09-.744 1.643-1.12 1.923-.359.63-.953 1.199-1.251 1.463-1.042.921-2.17 1.408-3.265 1.408z" transform="translate(-1641.717 -5130.74)"/>
                </g>
                <path id="Path_2021" data-name="Path 2021" class="cls-4" d="M1676.949 5242.8c4.111 1.039 14.932 4.9 16.327 10.479.882 3.53-3.64 17.995-4.246 26.689-.865 6.85-1.617 6.875-6.471 25.678l-19.79 2.122c0-.041 0-.077-.007-.118l-5.016-6.487c-.634-.821 2.971-18.5-5.514-36.627-5.932-12.67-.963-15.445 3.236-17.522 7-3.47 3.742-1.376 10.932-7.126a16.052 16.052 0 0 1 1.054 1.544c.6-.435 1.257-.94 2.011-1.544" transform="translate(-1649.489 -5147.782)"/>
                <g id="Path_2022" data-name="Path 2022" style="stroke-linejoin:round">
                    <path class="cls-16" d="M1668.087 5229.53c-2.093 0-3.858-.579-5.245-1.722-1.565-1.29-2.621-3.282-3.14-5.923l-.006-.031-.003-.033c-.169-1.43-.325-7.863.691-14.849.574-3.944 1.422-7.36 2.523-10.155 1.376-3.494 3.158-6.028 5.296-7.532 1.9-1.335 4.233-2.041 6.747-2.041 1.917 0 3.924.416 5.652 1.173 1.406.615 2.522 1.414 3.15 2.242 2.31.06 4.301.875 5.24 2.158.643.877.796 1.927.445 3.035l-1.648-.11c-.133-.755-.446-1.033-.883-1.114-.501 1.212-1.928 2.59-4.325 4.182-2.112 1.402-4.88 2.893-7.65 4.122-.17.798-.255 1.6-.228 2.206l.024.521-.454.258c-.093.052-.583.313-1.135.313-.69 0-1.22-.392-1.435-1.053a4.936 4.936 0 0 0-.194-.355c-.217 1.514.01 3.138.536 3.76.15.179.268.203.363.203a.92.92 0 0 0 .352-.087l1.553-.664-.391 1.643c-.004.013-.388 1.755.277 4.25.39 1.463 1.06 2.9 1.992 4.268 1.176 1.726 2.774 3.35 4.75 4.829l.89.665-.875.685c-1.63 1.275-3.732 2.523-5.764 3.424-2.558 1.134-5.015 1.733-7.105 1.733z" transform="translate(-1651.594 -5127.886)"/>
                    <path class="cls-17" d="M1674.95 5188.094c-2.11 0-4.32.525-6.258 1.886-8.708 6.124-8.485 28.934-8.155 31.742 2.3 11.727 14.82 5.95 19.895 1.983-9.104-6.81-7.337-14.226-7.337-14.226-2.15.92-2.824-2.43-2.396-4.98.093-.55.232-.836.39-.96l.233-.08c.54.057 1.175 1.408 1.175 1.408.257.933 1.357.31 1.357.31-.033-.722.068-1.748.347-2.853 5.186-2.254 11.887-6.15 12.057-8.563.1-.008.196-.012.29-.012 1.168 0 1.86.615 2.078 1.846.833-2.624-2.086-4.09-5.142-4.09-.063 0-.127.001-.19.003-.87-1.615-4.436-3.414-8.344-3.414m0-1.7c2.031 0 4.16.441 5.993 1.244 1.38.604 2.489 1.36 3.224 2.188 2.43.143 4.46 1.051 5.512 2.489.797 1.09.998 2.436.568 3.794a1.7 1.7 0 0 1-3.238.009c-.696.91-1.894 2.03-3.958 3.4-2.046 1.36-4.694 2.798-7.37 4.01-.101.581-.148 1.137-.129 1.572a1.7 1.7 0 0 1-.86 1.556c-.176.1-.808.425-1.554.425-.28 0-.546-.046-.793-.132.059.398.149.713.24.908a1.694 1.694 0 0 1 1.621.317c.49.42.703 1.067.544 1.692-.024.12-.32 1.705.297 3.94.375 1.36 1.01 2.696 1.89 3.973 1.117 1.624 2.636 3.16 4.514 4.564a1.7 1.7 0 0 1 .028 2.7c-1.683 1.317-3.85 2.604-5.943 3.532-2.704 1.198-5.21 1.806-7.449 1.806-2.295 0-4.242-.645-5.786-1.917-1.72-1.418-2.875-3.576-3.432-6.415a1.666 1.666 0 0 1-.02-.13c-.172-1.458-.334-8 .694-15.069.583-4.009 1.449-7.489 2.573-10.344 1.438-3.652 3.322-6.315 5.598-7.916 2.044-1.437 4.546-2.196 7.236-2.196z" transform="translate(-1651.594 -5127.886)"/>
                </g>
                <path id="Path_2023" data-name="Path 2023" d="M1661.564 5359.485a41.855 41.855 0 0 1 7.94-18.133l23.925-.266s1.906 13.294 2.592 18.4z" transform="translate(-1659.55 -5186.662)" style="fill:#424242;stroke-linejoin:round;stroke:#000;stroke-width:1.7px"/>
                <g id="Group_2139" data-name="Group 2139" transform="translate(41.568)">
                    <path id="Path_2025" data-name="Path 2025" class="cls-1" d="M1620.985 5176.006s-13.3 7.025-16.13 8.853-2.742 6.907-1.3 9.67 5.148 8.176 8.989 7.155 20.889-5.3 20.889-5.3a28.423 28.423 0 0 0-2.214-16.437c-3.94-8.6-6.543-5.9-10.229-3.94" transform="translate(-1602.569 -5122.472)"/>
                    <path id="Path_2026" data-name="Path 2026" class="cls-2" d="M1604.855 5184.858c2.83-1.827 16.13-8.853 16.13-8.853 3.686-1.96 6.289-4.656 10.229 3.94a28.423 28.423 0 0 1 2.214 16.437s-17.048 4.279-20.889 5.3-7.55-4.392-8.989-7.155-1.525-7.841 1.305-9.669z" transform="translate(-1602.569 -5122.472)"/>
                    <path id="Path_2027" data-name="Path 2027" class="cls-1" d="M1567.615 5139.115s-22.78 13.552-26.217 16.29-7.205 13.243-1.432 22.594 11.539 9.17 15.974 8.185 30.519-7.6 30.519-7.6 7.879-5.339 1.618-23.7-16.166-18.344-20.462-15.773" transform="translate(-1518.866 -5108.604)"/>
                    <path id="Path_2028" data-name="Path 2028" class="cls-2" d="M1541.4 5155.4c3.437-2.737 26.217-16.289 26.217-16.289 4.3-2.57 14.2-2.588 20.462 15.773s-1.618 23.7-1.618 23.7-26.083 6.611-30.519 7.6-10.2 1.167-15.974-8.185-2.007-19.856 1.432-22.599z" transform="translate(-1518.866 -5108.604)"/>
                    <path id="Path_2029" data-name="Path 2029" class="cls-9" d="M1556.892 5146.073s-6.2 23.61 15.107 37.1c0 0-22.53-8.844-15.107-37.1" transform="translate(-1511.711 -5111.742)"/>
                    <path id="Path_2030" data-name="Path 2030" class="cls-1" d="M1447.219 5145.258c-5.52-14.733.217-30.848 11-37.726a10.978 10.978 0 0 1 1.423-.835 22.376 22.376 0 0 1 1.647-.806c10.751-5.27 26.14-13.006 26.14-13.006 10.21-5.113 28.7-2.08 38.871 22.751s-6.74 40.651-12.84 42.119-19.182 5.112-29.739 7.926c-13.254 4.177-30.479-4.335-36.5-20.423" transform="translate(-1401.269 -5090.503)"/>
                    <path id="Path_2031" data-name="Path 2031" class="cls-2" d="M1458.222 5107.532a10.978 10.978 0 0 1 1.423-.835 22.376 22.376 0 0 1 1.647-.806c10.751-5.27 26.14-13.006 26.14-13.006 10.21-5.113 28.7-2.08 38.871 22.751s-6.74 40.651-12.84 42.119-19.182 5.112-29.739 7.926c-13.254 4.177-30.479-4.335-36.5-20.423-5.524-14.733.211-30.848 10.998-37.726z" transform="translate(-1401.269 -5090.503)"/>
                    <path id="Path_2032" data-name="Path 2032" d="m1474.542 5191.536 73.134-30.9 34.685 24.476c-6.674 1.692-18.161 4.878-27.623 7.4-7.048 2.221-15.218.854-22.23-3.332-8.067 2.035-20.246 5.09-23.151 5.734-3.2.711-7.1 1-11.2-2.417-5.347 1.348-13.413 3.384-15.907 4.048-2.981.798-5.886-2.295-7.708-5.009z" transform="translate(-1472.284 -5117.338)" style="mix-blend-mode:multiply;isolation:isolate;fill:#65c8d0"/>
                    <path id="Path_2033" data-name="Path 2033" d="M1445.415 5134.64c6.924 18.012 24.357 28.069 38.939 22.464s20.788-24.75 13.864-42.763-24.358-28.069-38.939-22.464-20.789 24.75-13.865 42.763" transform="translate(-1371.292 -5090.325)" style="fill:#c8ebee"/>
                    <path id="Path_2034" data-name="Path 2034" d="M1454.517 5136.427c-5.777-15.028-.931-30.974 10.806-36.327 12.3-3.887 26.58 4.707 32.357 19.734s.932 30.975-10.806 36.327c-12.3 3.888-26.58-4.706-32.357-19.734" transform="translate(-1376.207 -5093.722)" style="fill:#c2c2c2"/>
                    <path id="Path_2035" data-name="Path 2035" d="M1457.334 5137.167c-5.266-13.7-.849-28.229 9.849-33.11 11.211-3.542 24.225 4.289 29.491 17.987s.849 28.23-9.85 33.109c-11.21 3.543-24.225-4.289-29.49-17.987" transform="translate(-1376.854 -5095.274)" style="fill:#dedede"/>
                    <path id="Path_2036" data-name="Path 2036" class="cls-9" d="M1480.738 5119.289c-5.777-15.029-20.056-23.623-32.358-19.735q.553-.253 1.126-.473c12.548-4.824 27.55 3.832 33.51 19.333s.616 31.976-11.932 36.8c-.382.147-.766.28-1.152.4 11.737-5.353 16.584-21.3 10.806-36.327" transform="translate(-1359.266 -5093.175)"/>
                    <path id="Path_2037" data-name="Path 2037" class="cls-2" d="M1459.28 5091.877c14.581-5.6 32.014 4.453 38.939 22.464s.717 37.158-13.864 42.763-32.016-4.453-38.939-22.464-.716-37.159 13.864-42.763zm22.679 60.888c.386-.123.77-.256 1.152-.4 12.548-4.823 17.89-21.3 11.932-36.8s-20.962-24.156-33.51-19.333q-.573.221-1.126.474c.294-.094.591-.173.887-.252-.3.079-.593.158-.886.252-11.737 5.353-16.583 21.3-10.806 36.327s20.056 23.623 32.357 19.734" transform="translate(-1371.292 -5090.325)"/>
                </g>
                <g id="Group_2140" data-name="Group 2140" transform="translate(0 72.244)">
                    <g id="Path_2038" data-name="Path 2038" class="cls-5">
                        <path class="cls-16" d="m1598.459 5223.317-.78-.912a25.547 25.547 0 0 0-2.388-2.445l-.442-.395.218-.55c.13-.33.177-.848.202-1.125.029-.32.054-.598.32-.833 2.566-2.328 2.07-4.27 1.591-6.148a59.863 59.863 0 0 1-.07-.28c-.185-.734-.12-1.291.201-1.702.256-.328.649-.509 1.105-.509.316 0 .576.086.648.112l.248.092.153.215c.385.543.61 1.043.732 1.63.316-.175.75-.53.885-.715l.003-.003.001-.002c1.067-1.476 1.747-2.268 2.273-2.649.286-.208.558-.31.829-.31.265 0 .512.102.695.28.1-.014.205-.022.319-.023a1.001 1.001 0 0 1 .969.675c.254.096.556.317.725.814.036.108.05.212.05.311.114.098.209.222.277.368.148.319.272.898-.361 2.252a11.225 11.225 0 0 1-1.505 2.354c-.875 1.041-2.144 2.246-3.37 3.411l-.51.484c-.412 1.003-.72 1.649-.988 2.08-.305.497-.598 1.019-.882 1.524-.177.315-.36.641-.546.961l-.602 1.038z" transform="translate(-1529.556 -5207.638)"/>
                        <path class="cls-17" d="M1604.188 5207.638c-.08 0-.19.047-.33.149-.536.388-1.33 1.418-2.083 2.458-.31.435-2.156 2.012-2.375.595-.09-.591-.287-1.03-.629-1.511 0 0-1.224-.449-.837 1.094.49 1.957 1.315 4.465-1.78 7.27-.047.039-.04.983-.297 1.634.87.777 1.696 1.62 2.47 2.526.483-.833.934-1.683 1.439-2.506.29-.464.634-1.238.994-2.122 1.335-1.277 2.946-2.763 3.946-3.952 1.323-1.576 2.258-3.831 1.533-3.831a.529.529 0 0 0-.157.027.11.11 0 0 1-.03.006c-.158 0 .081-.546.039-.667-.226-.666-.719-.154-1.407.515.424-.412.988-1.427.52-1.427-.521 0-.738.228-1.099.699.29-.563.315-.957.083-.957m0-1.7c.342 0 .667.091.947.258h.072c.67 0 1.271.345 1.603.895.368.228.697.602.89 1.168.024.072.044.143.058.212.091.116.17.244.235.383.35.751.236 1.696-.361 2.972-.407.869-.998 1.795-1.624 2.54-.906 1.078-2.192 2.299-3.436 3.48l-.378.36c-.397.953-.704 1.589-.982 2.035-.296.482-.572.974-.864 1.494-.178.317-.363.645-.552.971a1.699 1.699 0 0 1-2.763.25 24.762 24.762 0 0 0-2.31-2.362 1.7 1.7 0 0 1-.447-1.892c.085-.216.128-.687.146-.889.034-.373.085-.931.6-1.389.995-.904 1.538-1.799 1.661-2.735.112-.85-.11-1.724-.326-2.57l-.072-.283c-.249-.991-.13-1.81.356-2.431.415-.532 1.061-.837 1.775-.837.443 0 .805.115.94.164.323.119.603.332.802.613.158.223.295.444.412.666 1.039-1.42 1.71-2.18 2.29-2.6.43-.313.877-.473 1.328-.473z" transform="translate(-1529.556 -5207.638)"/>
                    </g>
                    <path id="Path_2039" data-name="Path 2039" d="M1673.061 5221.792c-1.463-1.917-15.77 24.76-23.992 29.288-19.62-.633-22.65-5.328-29.53-6.562-14.992-6.96-19.148 9.531-8.452 12.338 13.163 2.884 16.256 7.731 44.672 7.883 5.359-8.016 10.364-21.871 20.588-40.992-1.775-.912-2.887-1.439-3.286-1.955z" transform="translate(-1605.107 -5213.038)" style="fill:#d2d7f3;stroke-linejoin:round;stroke:#000;stroke-width:1.7px"/>
                </g>
            </g>
            <path id="Path_2040" data-name="Path 2040" class="cls-2" d="M1454.517 5136.427c-5.777-15.028-.931-30.974 10.806-36.327 12.3-3.887 26.58 4.707 32.357 19.734s.932 30.975-10.806 36.327c-12.3 3.888-26.58-4.706-32.357-19.734" transform="translate(-1334.64 -5093.722)"/>
        </g>
        <path id="Path_1360" data-name="Path 1360" class="cls-15" d="M242.064 4022.794c-.861-3-4.212-5.24-8.219-5.24a10.447 10.447 0 0 0-2.129.217c-1.977-3.389-6.268-5.737-11.245-5.737a15.259 15.259 0 0 0-3.694.448c-2.679-3.555-7.546-5.932-13.106-5.932-6.615 0-12.25 3.365-14.385 8.075a12.525 12.525 0 0 0-5.1-1.061c-5.8 0-10.5 3.767-10.5 8.414a6.851 6.851 0 0 0 .05.816z" transform="translate(214.316 1847.08)"/>
        <path id="Path_1362" data-name="Path 1362" class="cls-15" d="M1124.991 3944.917a4.661 4.661 0 0 1 4.641-2.959 5.908 5.908 0 0 1 1.2.123 7.283 7.283 0 0 1 6.35-3.24 8.61 8.61 0 0 1 2.086.253 9.239 9.239 0 0 1 7.4-3.35c3.735 0 6.917 1.9 8.122 4.56a7.071 7.071 0 0 1 2.882-.6c3.274 0 5.928 2.127 5.928 4.751a3.92 3.92 0 0 1-.028.461z" transform="translate(-624.502 1891.975)"/>
    </g>
</svg>
