<svg xmlns="http://www.w3.org/2000/svg" viewBox="0 0 32 32"><defs><style>.cls-1{fill:#be1e2d;}.cls-2{fill:#eff0ef;}.cls-3{fill:#4d4d4d;stroke:#6d6e71;stroke-miterlimit:10;stroke-width:0.09px;}</style></defs><g id="Layer_5" data-name="Layer 5"><path class="cls-1" d="M16,10.34A10.8,10.8,0,0,0,5.13,20.39a.58.58,0,0,0,.58.59H8.49a.83.83,0,0,0,.83-.73A6.67,6.67,0,0,1,16,14.4a6.75,6.75,0,0,1,5.48,2.77l3.61-2A11,11,0,0,0,16,10.34Z"/><path class="cls-2" d="M26.86,20.11a10.37,10.37,0,0,0-1.74-4.95l.19.32-3.59,2a6.44,6.44,0,0,1,1,2.75.83.83,0,0,0,.83.73H26A.81.81,0,0,0,26.86,20.11Z"/><path class="cls-3" d="M16.41,20a.85.85,0,0,1,.33.29l5-2.82-.23-.33Z"/><path class="cls-3" d="M25.1,15.13h0l0,0Z"/><path class="cls-3" d="M25.12,15.16l0,0-3.61,2,.23.33,3.59-2Z"/><path class="cls-3" d="M16.41,20l-.41.23.21.36.53-.3A.85.85,0,0,0,16.41,20Z"/></g></svg>