<svg xmlns="http://www.w3.org/2000/svg" xmlns:xlink="http://www.w3.org/1999/xlink" viewBox="0 0 32 32"><defs><style>.cls-1{fill:#eff0ef;}.cls-2{fill:url(#linear-gradient);}.cls-3{fill:#4d4d4d;stroke:#6d6e71;stroke-miterlimit:10;stroke-width:0.09px;}</style><linearGradient id="linear-gradient" x1="5.13" y1="16.71" x2="12.15" y2="16.71" gradientUnits="userSpaceOnUse"><stop offset="1" stop-color="#2bb673"/><stop offset="1" stop-color="#42b867"/><stop offset="1" stop-color="#74bc4f"/><stop offset="1" stop-color="#9ebf3b"/><stop offset="1" stop-color="#c0c22a"/><stop offset="1" stop-color="#dbc41d"/><stop offset="1" stop-color="#eec613"/><stop offset="1" stop-color="#f9c70e"/><stop offset="1" stop-color="#fdc70c"/></linearGradient></defs><g id="Layer_5" data-name="Layer 5"><path class="cls-1" d="M26.86,20.22A10.84,10.84,0,0,0,16,10.34a11,11,0,0,0-6,1.75l2.44,3.34a6.75,6.75,0,0,1,10.2,4.94.83.83,0,0,0,.83.74H26A.82.82,0,0,0,26.86,20.22Z"/><path class="cls-2" d="M5.13,20.51a.58.58,0,0,0,.58.6H8.49a.83.83,0,0,0,.83-.74,6.63,6.63,0,0,1,2.83-4.72L9.72,12.32A10.74,10.74,0,0,0,5.13,20.51Z"/><path class="cls-3" d="M15.49,20.21a.88.88,0,0,1,.4-.15L12.5,15.43l-.35.22Z"/><path class="cls-3" d="M10.05,12.07l-.34.24h0a4,4,0,0,1,.34-.23Z"/><path class="cls-3" d="M9.72,12.32l2.43,3.33.35-.22-2.44-3.34A4,4,0,0,0,9.72,12.32Z"/><path class="cls-3" d="M15.87,20.73l.34-.24-.32-.43a.88.88,0,0,0-.4.15Z"/></g></svg>