<svg xmlns="http://www.w3.org/2000/svg" viewBox="0 0 248.01 152.3"><defs><style>.cls-1{fill:#dbd6bf;}.cls-2{fill:#e2dec5;}.cls-3{fill:none;stroke:#000;stroke-miterlimit:10;stroke-width:1.01px;}.cls-4{opacity:0.56;}.cls-5{opacity:0.68;}.cls-6{fill:#acd4f7;}.cls-7{fill:#fff;}.cls-8{opacity:0.3;}</style></defs><g id="Layer_2" data-name="Layer 2"><g id="Layer_1-2" data-name="Layer 1"><polygon class="cls-1" points="45.57 139.56 45.07 134.82 44.57 1.56 130.07 6.06 130.07 137.06 45.57 139.56"/><path class="cls-2" d="M.66,151.67s.13-40.23,0-150l44.91-.11v138Z"/><polygon class="cls-2" points="130.07 137.06 130.07 6.06 206.57 0.56 204.57 139.56 130.07 137.06"/><path class="cls-1" d="M246.78,149l-43.21-9.47,1.12-139,43,1.11S247.66,74.67,246.78,149Z"/><path class="cls-3" d="M206.42.59v0l-.5,0-1.38,0V.68L129.92,6,45.42,1.59V1.54h-1L.51,1.65c.13,109.77,0,150,0,150l44.91-12.11,84.5-2.5,73.5,2.47v0L246.63,149c.88-74.36.88-147.36.88-147.36Z"/><g class="cls-4"><path d="M156.77,134.27a.48.48,0,0,0,.38-.18,111.13,111.13,0,0,1,7.58-8.69.42.42,0,0,0,0-.62.49.49,0,0,0-.66,0,111.09,111.09,0,0,0-7.64,8.76.42.42,0,0,0,.1.61A.48.48,0,0,0,156.77,134.27Z"/><path d="M164.08,134.25a.48.48,0,0,0,.29-.09.41.41,0,0,0,.08-.61,77.22,77.22,0,0,0-8-8.28.49.49,0,0,0-.66,0,.4.4,0,0,0,0,.61,78.34,78.34,0,0,1,7.95,8.18A.44.44,0,0,0,164.08,134.25Z"/></g><g class="cls-5"><path class="cls-6" d="M235.48,136.47A86.68,86.68,0,0,0,242,125.11c1.2-2.54,2.27-5.2,2.16-7.93a7.71,7.71,0,0,0-4.51-6.81,14.22,14.22,0,0,0-7.67-1.06c-3,.42-7.59,2.32-8.1,6.8a13.75,13.75,0,0,0,.68,5.26A53,53,0,0,0,232,137.19a2.1,2.1,0,0,0,1.63,1.13C234.59,138.29,234.9,137.33,235.48,136.47Z"/><path d="M231.6,137.46a53.44,53.44,0,0,1-7.59-16,14,14,0,0,1-.69-5.44c.51-4.52,4.92-6.72,8.55-7.22a14.79,14.79,0,0,1,8,1.09,8.24,8.24,0,0,1,4.82,7.25c.12,2.94-1.08,5.74-2.21,8.13a86.24,86.24,0,0,1-6.52,11.44h0c-.12.18-.23.37-.34.55-.41.7-.88,1.49-1.89,1.52h-.05A2.61,2.61,0,0,1,231.6,137.46Zm3.43-1.25a85.31,85.31,0,0,0,6.45-11.3c1.08-2.3,2.23-5,2.12-7.71a7.25,7.25,0,0,0-4.22-6.39,13.67,13.67,0,0,0-7.36-1c-3.25.45-7.21,2.39-7.66,6.36a13.51,13.51,0,0,0,.67,5.08,52.51,52.51,0,0,0,7.45,15.69c.44.63.8.89,1.18.9s.59-.32,1-1c.11-.19.24-.4.37-.6Z"/><path class="cls-7" d="M235.14,114.76c3.22.56,3.48,4.22,2.93,5.47a4.45,4.45,0,0,1-5.2,2.59,4.05,4.05,0,0,1-3.1-5.21C230.47,115,233.63,114.5,235.14,114.76Z"/><path d="M232.74,123.3a4.52,4.52,0,0,1-3.48-5.81c.74-2.77,4-3.55,6-3.21h0a4,4,0,0,1,2.89,2,5.11,5.11,0,0,1,.43,4.16,5,5,0,0,1-4.52,3A5.62,5.62,0,0,1,232.74,123.3Zm-2.46-5.57c0,.15-1,3.75,2.72,4.62a3.93,3.93,0,0,0,4.58-2.31,4.2,4.2,0,0,0-.37-3.32,3,3,0,0,0-2.16-1.47h0C233.82,115,230.91,115.36,230.28,117.73Z"/></g><g class="cls-8"><path d="M224.79,138a.62.62,0,0,0-.7.23c-.11.21,0,.45.3.54a8.36,8.36,0,0,0,2.39.38,5.19,5.19,0,0,0,2.24-.47.37.37,0,0,0,.17-.57c-.16-.2-.72-.32-.74-.13M221,137a.62.62,0,0,0,.44-.17.35.35,0,0,0-.12-.57,12.46,12.46,0,0,0-3.15-1.34c-.29-.07-.59-.12-.9-.17a.54.54,0,0,0-.62.34c-.06.22.14.44.43.48a5.7,5.7,0,0,1,.76.14,10.84,10.84,0,0,1,2.85,1.21A.55.55,0,0,0,221,137Zm-12.15-1a29.31,29.31,0,0,0,3.51-.28l.62-.08c.29,0,.5-.25.45-.47a.52.52,0,0,0-.61-.34l-.63.07a23.87,23.87,0,0,1-3.55.27c-.3,0-.54.18-.55.41s.23.41.53.42Zm-4.23-1a.6.6,0,0,0,.43-.16.35.35,0,0,0-.11-.58,6.92,6.92,0,0,1-2.45-2.42.6.6,0,0,0-.71-.2.38.38,0,0,0-.26.55,7.74,7.74,0,0,0,2.78,2.73A.59.59,0,0,0,204.59,135Zm-3.67-5.76H201c.3,0,.51-.22.49-.45a13.86,13.86,0,0,1-.11-1.79c0-.42,0-.87,0-1.45a.48.48,0,0,0-.51-.43.5.5,0,0,0-.56.4c0,.59,0,1,0,1.48a13.45,13.45,0,0,0,.11,1.87A.5.5,0,0,0,200.92,129.26Zm.05-6.59h0a.5.5,0,0,0,.53-.42,11.15,11.15,0,0,0-.52-3.37.57.57,0,0,0-.66-.29c-.28,0-.46.28-.38.5a10.47,10.47,0,0,1,.48,3.17A.5.5,0,0,0,201,122.67Z"/></g><g class="cls-8"><path d="M169.2,126.1a.6.6,0,0,0,.19-.71.39.39,0,0,0-.62,0,8.14,8.14,0,0,0-1.62,1.79,5,5,0,0,0-.83,2.13.37.37,0,0,0,.39.46c.25,0,.66-.43.51-.55m4.88-5.74a.62.62,0,0,0-.1.45.36.36,0,0,0,.55.22,12.05,12.05,0,0,0,2.85-1.91,6.6,6.6,0,0,0,.63-.66.54.54,0,0,0,.06-.7.44.44,0,0,0-.64.1,5.73,5.73,0,0,1-.54.56,10.85,10.85,0,0,1-2.57,1.71A.66.66,0,0,0,172.1,123.44Zm7.45-9.66a29,29,0,0,0-1.68,3.1l-.27.56a.45.45,0,0,0,.15.64.54.54,0,0,0,.62-.33l.28-.56a24.61,24.61,0,0,1,1.71-3.12.51.51,0,0,0,0-.69.48.48,0,0,0-.64.21Zm3.17-3a.62.62,0,0,0-.1.45.36.36,0,0,0,.54.23,6.87,6.87,0,0,1,3.38-.72.62.62,0,0,0,.56-.49c.07-.28-.07-.51-.32-.52a7.89,7.89,0,0,0-3.82.82A.59.59,0,0,0,182.72,110.8Zm6.85.09,0,0a.46.46,0,0,0,.12.65,15.44,15.44,0,0,1,1.56.89l1.2.83a.47.47,0,0,0,.64-.19.5.5,0,0,0,0-.69c-.48-.35-.86-.61-1.22-.85a14.18,14.18,0,0,0-1.64-.93A.49.49,0,0,0,189.57,110.89Zm5.52,3.66h0a.48.48,0,0,0,.06.67,11.43,11.43,0,0,0,3.11,1.42.58.58,0,0,0,.61-.39.42.42,0,0,0-.21-.6,10.28,10.28,0,0,1-2.93-1.34A.5.5,0,0,0,195.09,114.55Z"/></g></g></g></svg>