<?xml version="1.0" encoding="UTF-8"?><svg id="a" xmlns="http://www.w3.org/2000/svg" viewBox="0 0 371.29 228.01"><defs><style>.b{opacity:.68;}.c{fill:#fff;}.d{fill:#add3f2;}.e{fill:none;stroke:#010101;stroke-miterlimit:10;stroke-width:1.51px;}.f{fill:#dcd7c0;}.g{opacity:.3;}.h{fill:#e2dec5;}.i{fill:#010101;}.j{opacity:.56;}</style></defs><g><polygon class="f" points="68.22 208.94 67.47 201.84 66.72 2.34 194.72 9.08 194.72 205.19 68.22 208.94"/><path class="h" d="M.98,227.06S1.19,166.83,.98,2.5l67.24-.15V208.94L.98,227.06Z"/><polygon class="h" points="194.72 205.19 194.72 9.08 309.25 .84 306.25 208.94 194.72 205.19"/><path class="f" d="M369.45,223.11l-64.69-14.18L306.43,.84l64.33,1.65s0,109.29-1.31,220.62Z"/></g><path class="e" d="M309.02,.88v-.07l-.74,.05-2.08-.05v.2l-111.71,8.03L68,2.39v-.08h-1.5L.76,2.46c.21,164.33,0,224.56,0,224.56l67.24-18.12,126.5-3.74,110.03,3.69v.05l64.69,14.18c1.31-111.33,1.31-220.62,1.31-220.62l-61.51-1.58Z"/><g><g class="j"><path class="i" d="M234.69,201.02c.22,0,.43-.09,.57-.27,3.48-4.44,7.3-8.82,11.35-13.02,.26-.27,.24-.68-.05-.92-.29-.24-.73-.22-.99,.05-4.08,4.23-7.93,8.64-11.44,13.12-.23,.29-.16,.7,.15,.91,.12,.09,.27,.13,.41,.13Z"/><path class="i" d="M245.65,200.99c.15,0,.3-.05,.43-.14,.3-.22,.36-.63,.12-.92-3.59-4.3-7.64-8.47-12.04-12.39-.28-.25-.72-.24-.99,.02-.27,.26-.26,.67,.02,.92,4.35,3.87,8.35,8,11.9,12.25,.14,.17,.34,.25,.55,.25Z"/></g><g class="b"><g><path class="d" d="M352.52,204.31c3.7-5.47,6.94-11.16,9.71-17.02,1.79-3.8,3.41-7.78,3.24-11.86-.17-4.09-2.46-8.33-6.76-10.21-3.57-1.55-7.5-2.13-11.47-1.57-4.5,.63-11.37,3.46-12.14,10.17-.3,2.64,.29,5.3,1.02,7.88,2.34,8.31,6.15,16.32,11.26,23.69,.56,.81,1.34,1.71,2.45,1.68,1.37-.03,1.83-1.48,2.7-2.76Z"/><path class="i" d="M346.71,205.79c-5.16-7.46-8.99-15.5-11.36-23.9-.73-2.58-1.36-5.35-1.04-8.14,.77-6.78,7.38-10.06,12.8-10.82,4.04-.56,8.16,0,11.92,1.64,4.19,1.82,7.02,6.08,7.22,10.85,.18,4.4-1.61,8.6-3.31,12.19-2.77,5.87-6.05,11.62-9.76,17.11h0c-.18,.27-.35,.55-.51,.83-.62,1.05-1.32,2.24-2.83,2.28-.02,0-.05,0-.07,0-1.49,0-2.46-1.15-3.06-2.02Zm5.14-1.87c3.67-5.43,6.91-11.12,9.65-16.92,1.62-3.44,3.34-7.45,3.17-11.54-.17-4.22-2.65-7.98-6.31-9.57-3.47-1.51-7.28-2.03-11.02-1.51-4.87,.68-10.79,3.58-11.47,9.52-.29,2.55,.31,5.17,1,7.61,2.33,8.25,6.08,16.15,11.16,23.48,.65,.95,1.2,1.34,1.77,1.35,.55-.01,.88-.47,1.49-1.51,.17-.3,.36-.6,.56-.9h0Z"/></g><g><path class="c" d="M352.02,171.81c4.82,.83,5.2,6.31,4.39,8.18-.86,1.98-3.48,4.9-7.79,3.89-5.09-1.2-5.2-5.73-4.64-7.8,1.05-3.95,5.78-4.66,8.04-4.27Z"/><path class="i" d="M348.43,184.59c-5.61-1.32-5.86-6.26-5.21-8.69,1.11-4.15,6-5.32,8.95-4.81h0c1.9,.33,3.4,1.35,4.34,2.95,1.2,2.06,1.27,4.78,.64,6.23-.8,1.84-3.05,4.56-6.76,4.56-.61,0-1.26-.07-1.95-.24Zm-3.69-8.34c-.06,.23-1.43,5.61,4.07,6.91,3.83,.9,6.12-1.75,6.87-3.45,.42-.97,.46-3.23-.56-4.97-.71-1.21-1.8-1.96-3.24-2.21h0c-1.84-.32-6.19,.18-7.14,3.72Z"/></g></g><g class="g"><path class="i" d="M336.53,206.55c-.41-.13-.88,.03-1.05,.35-.16,.32,.04,.68,.45,.8,1.24,.38,2.45,.57,3.57,.57,1.25,0,2.38-.24,3.35-.71,.38-.18,.49-.56,.25-.85-.24-.29-1.07-.48-1.11-.19m-11.19-1.41c.25,0,.49-.09,.65-.25,.26-.28,.18-.66-.18-.86-1.41-.79-2.95-1.57-4.72-2-.43-.1-.88-.19-1.34-.25-.44-.06-.86,.16-.93,.5-.08,.34,.21,.66,.65,.72,.39,.05,.78,.13,1.14,.21,1.46,.35,2.76,.98,4.26,1.82,.14,.08,.31,.12,.47,.12Zm-18.2-1.44c1.75,0,3.53-.22,5.26-.43l.93-.11c.44-.05,.74-.37,.67-.7-.07-.34-.48-.57-.92-.52l-.94,.11c-1.77,.22-3.59,.45-5.31,.41-.45,0-.81,.26-.82,.6-.01,.34,.34,.62,.78,.63,.12,0,.23,0,.35,0Zm-6.33-1.52c.24,0,.49-.08,.64-.25,.27-.27,.2-.66-.16-.86-1.49-.86-2.76-2.11-3.67-3.63-.19-.31-.67-.44-1.07-.3-.4,.14-.58,.51-.39,.82,1.02,1.7,2.46,3.11,4.16,4.09,.14,.08,.31,.12,.48,.12Zm-5.49-8.63s.05,0,.08,0c.44-.03,.77-.34,.72-.68-.1-.81-.15-1.68-.15-2.68,0-.63,.02-1.3,.06-2.17,.02-.34-.33-.63-.77-.64-.44-.02-.82,.25-.83,.59-.04,.89-.06,1.57-.06,2.22,0,1.04,.05,1.96,.16,2.8,.04,.32,.39,.56,.8,.56Zm.07-9.87h.01c.44,0,.8-.29,.79-.63-.04-1.97-.29-3.58-.78-5.04-.11-.33-.55-.53-.98-.44-.43,.08-.69,.42-.58,.75,.46,1.37,.69,2.88,.73,4.75,0,.34,.37,.61,.8,.61Z"/></g><g class="g"><path class="i" d="M253.3,188.78c.33-.28,.46-.75,.28-1.06-.18-.31-.59-.34-.92-.06-1,.83-1.82,1.73-2.43,2.68-.68,1.05-1.1,2.12-1.23,3.2-.05,.42,.21,.72,.58,.68,.37-.04,.99-.64,.77-.82m7.3-8.59c-.14,.21-.2,.46-.14,.68,.09,.37,.46,.52,.82,.33,1.43-.75,2.94-1.61,4.26-2.86,.32-.3,.64-.63,.94-.99,.29-.33,.33-.81,.09-1.06-.24-.25-.67-.18-.96,.15-.26,.3-.53,.58-.8,.84-1.1,1.03-2.33,1.77-3.86,2.57-.15,.08-.27,.19-.36,.33Zm11.15-14.45c-.96,1.47-1.75,3.08-2.51,4.64l-.41,.84c-.2,.4-.1,.82,.23,.95,.32,.13,.74-.09,.94-.49l.42-.85c.78-1.6,1.59-3.25,2.56-4.67,.25-.38,.22-.82-.06-1.02-.28-.2-.71-.06-.96,.31-.06,.1-.13,.19-.19,.29Zm4.74-4.47c-.13,.2-.19,.45-.14,.67,.08,.37,.45,.53,.81,.34,1.54-.78,3.29-1.15,5.05-1.08,.36,.01,.74-.31,.84-.73,.1-.42-.11-.77-.47-.78-1.98-.08-3.96,.35-5.72,1.24-.15,.08-.28,.2-.37,.34Zm10.26,.14s-.03,.04-.04,.07c-.21,.39-.14,.83,.17,.98,.74,.36,1.5,.8,2.34,1.34,.53,.35,1.08,.73,1.79,1.24,.28,.2,.71,.07,.96-.3,.25-.36,.23-.82-.04-1.02-.72-.52-1.29-.91-1.83-1.27-.87-.57-1.67-1.03-2.45-1.4-.29-.14-.68,.02-.91,.36Zm8.27,5.48h0c-.24,.39-.2,.84,.09,1.02,1.68,1.05,3.16,1.72,4.66,2.12,.34,.09,.75-.17,.91-.58,.16-.41,.02-.81-.32-.9-1.4-.37-2.8-1-4.39-2-.29-.18-.71-.03-.95,.34Z"/></g></g></svg>