<?xml version="1.0" standalone="no"?>
<svg xmlns:xlink="http://www.w3.org/1999/xlink" id="wave" style="transform:rotate(0deg); transition: 0.3s" viewBox="0 0 1440 490" version="1.1" xmlns="http://www.w3.org/2000/svg"><defs><linearGradient id="sw-gradient-0" x1="0" x2="0" y1="1" y2="0"><stop stop-color="rgba(101, 200, 209, 1)" offset="0%"/><stop stop-color="rgba(130, 67, 216, 1)" offset="100%"/></linearGradient></defs><path style="transform:translate(0, 0px); opacity:1" fill="url(#sw-gradient-0)" d="M0,196L20,212.3C40,229,80,261,120,245C160,229,200,163,240,163.3C280,163,320,229,360,285.8C400,343,440,392,480,383.8C520,376,560,310,600,261.3C640,212,680,180,720,212.3C760,245,800,343,840,334.8C880,327,920,212,960,179.7C1000,147,1040,196,1080,179.7C1120,163,1160,82,1200,89.8C1240,98,1280,196,1320,204.2C1360,212,1400,131,1440,147C1480,163,1520,278,1560,334.8C1600,392,1640,392,1680,392C1720,392,1760,392,1800,400.2C1840,408,1880,425,1920,375.7C1960,327,2000,212,2040,147C2080,82,2120,65,2160,106.2C2200,147,2240,245,2280,253.2C2320,261,2360,180,2400,147C2440,114,2480,131,2520,114.3C2560,98,2600,49,2640,65.3C2680,82,2720,163,2760,228.7C2800,294,2840,343,2860,367.5L2880,392L2880,490L2860,490C2840,490,2800,490,2760,490C2720,490,2680,490,2640,490C2600,490,2560,490,2520,490C2480,490,2440,490,2400,490C2360,490,2320,490,2280,490C2240,490,2200,490,2160,490C2120,490,2080,490,2040,490C2000,490,1960,490,1920,490C1880,490,1840,490,1800,490C1760,490,1720,490,1680,490C1640,490,1600,490,1560,490C1520,490,1480,490,1440,490C1400,490,1360,490,1320,490C1280,490,1240,490,1200,490C1160,490,1120,490,1080,490C1040,490,1000,490,960,490C920,490,880,490,840,490C800,490,760,490,720,490C680,490,640,490,600,490C560,490,520,490,480,490C440,490,400,490,360,490C320,490,280,490,240,490C200,490,160,490,120,490C80,490,40,490,20,490L0,490Z"/><defs><linearGradient id="sw-gradient-1" x1="0" x2="0" y1="1" y2="0"><stop stop-color="rgba(130, 67, 216, 1)" offset="0%"/><stop stop-color="rgba(101, 200, 209, 1)" offset="100%"/></linearGradient></defs><path style="transform:translate(0, 50px); opacity:0.9" fill="url(#sw-gradient-1)" d="M0,196L20,179.7C40,163,80,131,120,114.3C160,98,200,98,240,98C280,98,320,98,360,130.7C400,163,440,229,480,245C520,261,560,229,600,245C640,261,680,327,720,318.5C760,310,800,229,840,163.3C880,98,920,49,960,40.8C1000,33,1040,65,1080,122.5C1120,180,1160,261,1200,245C1240,229,1280,114,1320,130.7C1360,147,1400,294,1440,343C1480,392,1520,343,1560,277.7C1600,212,1640,131,1680,106.2C1720,82,1760,114,1800,106.2C1840,98,1880,49,1920,57.2C1960,65,2000,131,2040,187.8C2080,245,2120,294,2160,334.8C2200,376,2240,408,2280,424.7C2320,441,2360,441,2400,432.8C2440,425,2480,408,2520,334.8C2560,261,2600,131,2640,98C2680,65,2720,131,2760,138.8C2800,147,2840,98,2860,73.5L2880,49L2880,490L2860,490C2840,490,2800,490,2760,490C2720,490,2680,490,2640,490C2600,490,2560,490,2520,490C2480,490,2440,490,2400,490C2360,490,2320,490,2280,490C2240,490,2200,490,2160,490C2120,490,2080,490,2040,490C2000,490,1960,490,1920,490C1880,490,1840,490,1800,490C1760,490,1720,490,1680,490C1640,490,1600,490,1560,490C1520,490,1480,490,1440,490C1400,490,1360,490,1320,490C1280,490,1240,490,1200,490C1160,490,1120,490,1080,490C1040,490,1000,490,960,490C920,490,880,490,840,490C800,490,760,490,720,490C680,490,640,490,600,490C560,490,520,490,480,490C440,490,400,490,360,490C320,490,280,490,240,490C200,490,160,490,120,490C80,490,40,490,20,490L0,490Z"/></svg>